<?xml version="1.0" encoding="UTF-8" standalone="no"?>
<!DOCTYPE svg PUBLIC "-//W3C//DTD SVG 1.1//EN" "http://www.w3.org/Graphics/SVG/1.1/DTD/svg11.dtd">
<svg version="1.1" xmlns="http://www.w3.org/2000/svg" xmlns:xlink="http://www.w3.org/1999/xlink" preserveAspectRatio="xMidYMid meet" viewBox="0 0 640 450" width="640" height="450"><defs><path d="M146.73 11.81C153.44 10.29 157.55 12.88 159.07 19.59C187.04 143.22 202.59 211.9 205.7 225.63C207.21 232.34 204.62 236.45 197.91 237.97C116.54 256.39 71.33 266.62 62.29 268.66C55.58 270.18 51.47 267.59 49.95 260.88C21.97 137.25 6.43 68.57 3.32 54.84C1.8 48.13 4.4 44.02 11.11 42.5C92.48 24.08 137.69 13.85 146.73 11.81Z" id="a3oTiNsxEG"></path><path d="M16.71 70.56C14.17 70.56 12.1 72.62 12.1 75.16C12.1 77.71 14.17 79.77 16.71 79.77C19.26 79.77 21.32 77.71 21.32 75.16C21.32 72.62 19.26 70.56 16.71 70.56Z" id="a1EjPkLaWr"></path><path d="M21.32 87.45C18.77 87.45 16.71 89.51 16.71 92.06C16.71 94.6 18.77 96.66 21.32 96.66C23.86 96.66 25.93 94.6 25.93 92.06C25.93 89.51 23.86 87.45 21.32 87.45Z" id="a5vH4A69TI"></path><path d="M51.26 211.07C48.72 211.07 46.66 213.13 46.66 215.67C46.66 218.22 48.72 220.28 51.26 220.28C53.81 220.28 55.87 218.22 55.87 215.67C55.87 213.13 53.81 211.07 51.26 211.07Z" id="e3hZvAAQ8"></path><path d="M55.87 227.96C53.33 227.96 51.26 230.02 51.26 232.56C51.26 235.11 53.33 237.17 55.87 237.17C58.41 237.17 60.48 235.11 60.48 232.56C60.48 230.02 58.41 227.96 55.87 227.96Z" id="a2tkS9m3yS"></path><path d="M166.05 189.57C166.05 189.57 166.05 189.57 166.05 189.57C168.17 198.92 169.34 204.11 169.58 205.15C169.58 205.15 169.58 205.15 169.58 205.15C113.47 217.85 82.3 224.91 76.06 226.32C76.06 226.32 76.06 226.32 76.06 226.32C73.94 216.97 72.77 211.77 72.53 210.73C72.53 210.73 72.53 210.73 72.53 210.73C128.64 198.03 159.81 190.98 166.05 189.57Z" id="a1W2ndJd0b"></path><path d="M270.26 90.56C270.26 90.56 270.26 90.56 270.26 90.56C300.97 226.25 318.03 301.64 321.44 316.72C321.44 316.72 321.44 316.72 321.44 316.72C228 337.87 176.08 349.62 165.7 351.97C165.7 351.97 165.7 351.97 165.7 351.97C134.99 216.27 117.93 140.88 114.52 125.8C114.52 125.8 114.52 125.8 114.52 125.8C207.96 104.65 259.88 92.91 270.26 90.56Z" id="m5VruQZXuF"></path><path d="M434.5 53.39C434.5 53.39 434.5 53.39 434.5 53.39C465.21 189.08 482.27 264.47 485.68 279.55C485.68 279.55 485.68 279.55 485.68 279.55C392.24 300.7 340.32 312.45 329.94 314.8C329.94 314.8 329.94 314.8 329.94 314.8C299.23 179.1 282.17 103.71 278.75 88.63C278.75 88.63 278.75 88.63 278.75 88.63C372.2 67.48 424.12 55.74 434.5 53.39Z" id="c1INKBMok0"></path><path d="M241.36 122.83C241.36 122.83 241.36 122.83 241.36 122.83C243.48 132.18 244.65 137.38 244.89 138.42C244.89 138.42 244.89 138.42 244.89 138.42C188.78 151.12 157.61 158.17 151.37 159.58C151.37 159.58 151.37 159.58 151.37 159.58C149.26 150.23 148.08 145.04 147.85 144C147.85 144 147.85 144 147.85 144C203.96 131.3 235.13 124.24 241.36 122.83Z" id="b2gyqKoMzY"></path><path d="M265.47 156.97C265.47 156.97 265.47 156.97 265.47 156.97C266 159.31 266.3 160.61 266.35 160.87C266.35 160.87 266.35 160.87 266.35 160.87C191.54 177.8 149.98 187.21 141.67 189.09C141.67 189.09 141.67 189.09 141.67 189.09C141.14 186.75 140.84 185.45 140.79 185.19C140.79 185.19 140.79 185.19 140.79 185.19C215.6 168.26 257.16 158.85 265.47 156.97Z" id="a2GygIQNuz"></path><path d="M267.53 166.06C267.53 166.06 267.53 166.06 267.53 166.06C268.06 168.4 268.35 169.7 268.41 169.96C268.41 169.96 268.41 169.96 268.41 169.96C193.6 186.89 152.04 196.3 143.73 198.18C143.73 198.18 143.73 198.18 143.73 198.18C143.2 195.84 142.9 194.54 142.84 194.28C142.84 194.28 142.84 194.28 142.84 194.28C217.66 177.35 259.22 167.94 267.53 166.06Z" id="a1aGdjGAag"></path><path d="M269.59 175.15C269.59 175.15 269.59 175.15 269.59 175.15C270.12 177.49 270.41 178.79 270.47 179.05C270.47 179.05 270.47 179.05 270.47 179.05C195.66 195.98 154.1 205.39 145.78 207.27C145.78 207.27 145.78 207.27 145.78 207.27C145.25 204.93 144.96 203.63 144.9 203.37C144.9 203.37 144.9 203.37 144.9 203.37C219.71 186.44 261.28 177.04 269.59 175.15Z" id="akKATOdck"></path><path d="M206.7 198.94C206.7 198.94 206.7 198.94 206.7 198.94C207.23 201.28 207.53 202.58 207.59 202.84C207.59 202.84 207.59 202.84 207.59 202.84C171.74 210.95 151.82 215.46 147.84 216.36C147.84 216.36 147.84 216.36 147.84 216.36C147.31 214.02 147.02 212.73 146.96 212.47C146.96 212.47 146.96 212.47 146.96 212.47C182.81 204.35 202.72 199.85 206.7 198.94Z" id="aTSmMDySz"></path><path d="M217.85 205.98C217.85 205.98 217.85 205.98 217.85 205.98C218.38 208.32 218.68 209.61 218.74 209.87C218.74 209.87 218.74 209.87 218.74 209.87C177.43 219.22 154.49 224.42 149.9 225.45C149.9 225.45 149.9 225.45 149.9 225.45C149.37 223.12 149.08 221.82 149.02 221.56C149.02 221.56 149.02 221.56 149.02 221.56C190.32 212.21 213.26 207.02 217.85 205.98Z" id="a3qc5J8j0S"></path><path d="M275.76 202.43C275.76 202.43 275.76 202.43 275.76 202.43C276.29 204.77 276.58 206.07 276.64 206.33C276.64 206.33 276.64 206.33 276.64 206.33C201.83 223.26 160.27 232.66 151.96 234.55C151.96 234.55 151.96 234.55 151.96 234.55C151.43 232.21 151.13 230.91 151.07 230.65C151.07 230.65 151.07 230.65 151.07 230.65C225.89 213.72 267.45 204.31 275.76 202.43Z" id="bQu9gSHRR"></path><path d="M277.82 211.52C277.82 211.52 277.82 211.52 277.82 211.52C278.35 213.86 278.64 215.16 278.7 215.42C278.7 215.42 278.7 215.42 278.7 215.42C203.89 232.35 162.33 241.76 154.01 243.64C154.01 243.64 154.01 243.64 154.01 243.64C153.48 241.3 153.19 240 153.13 239.74C153.13 239.74 153.13 239.74 153.13 239.74C227.94 222.81 269.51 213.4 277.82 211.52Z" id="kyPNLXCj"></path><path d="M270.78 222.67C270.78 222.67 270.78 222.67 270.78 222.67C271.31 225.01 271.61 226.31 271.67 226.57C271.67 226.57 271.67 226.57 271.67 226.57C202.31 242.26 163.78 250.99 156.07 252.73C156.07 252.73 156.07 252.73 156.07 252.73C155.54 250.39 155.25 249.09 155.19 248.83C155.19 248.83 155.19 248.83 155.19 248.83C224.55 233.14 263.08 224.42 270.78 222.67Z" id="a53Owhwa12"></path><path d="M281.93 229.71C281.93 229.71 281.93 229.71 281.93 229.71C282.46 232.04 282.76 233.34 282.82 233.6C282.82 233.6 282.82 233.6 282.82 233.6C208 250.53 166.44 259.94 158.13 261.82C158.13 261.82 158.13 261.82 158.13 261.82C157.6 259.48 157.31 258.18 157.25 257.92C157.25 257.92 157.25 257.92 157.25 257.92C232.06 240.99 273.62 231.59 281.93 229.71Z" id="bTR0nBY3k"></path><path d="M224.25 252.32C224.25 252.32 224.25 252.32 224.25 252.32C224.77 254.66 225.07 255.96 225.13 256.22C225.13 256.22 225.13 256.22 225.13 256.22C186.16 265.03 164.52 269.93 160.19 270.91C160.19 270.91 160.19 270.91 160.19 270.91C159.66 268.57 159.36 267.28 159.3 267.02C159.3 267.02 159.3 267.02 159.3 267.02C198.27 258.2 219.92 253.3 224.25 252.32Z" id="bPnptlod8"></path><path d="M399.34 223.61C399.34 223.61 399.34 223.61 399.34 223.61C399.87 225.95 400.16 227.25 400.22 227.51C400.22 227.51 400.22 227.51 400.22 227.51C358.92 236.86 335.97 242.05 331.39 243.09C331.39 243.09 331.39 243.09 331.39 243.09C330.86 240.75 330.56 239.45 330.5 239.19C330.5 239.19 330.5 239.19 330.5 239.19C371.81 229.85 394.75 224.65 399.34 223.61Z" id="c5hJg1YSB"></path><path d="M457.25 220.07C457.25 220.07 457.25 220.07 457.25 220.07C457.78 222.4 458.07 223.7 458.13 223.96C458.13 223.96 458.13 223.96 458.13 223.96C383.32 240.89 341.76 250.3 333.44 252.18C333.44 252.18 333.44 252.18 333.44 252.18C332.91 249.84 332.62 248.55 332.56 248.29C332.56 248.29 332.56 248.29 332.56 248.29C407.37 231.35 448.94 221.95 457.25 220.07Z" id="a56TGy0sP"></path><path d="M459.31 229.16C459.31 229.16 459.31 229.16 459.31 229.16C459.84 231.5 460.13 232.8 460.19 233.05C460.19 233.05 460.19 233.05 460.19 233.05C385.38 249.99 343.81 259.39 335.5 261.27C335.5 261.27 335.5 261.27 335.5 261.27C334.97 258.94 334.68 257.64 334.62 257.38C334.62 257.38 334.62 257.38 334.62 257.38C409.43 240.45 450.99 231.04 459.31 229.16Z" id="e5T6KyInA"></path><path d="M452.27 240.31C452.27 240.31 452.27 240.31 452.27 240.31C452.8 242.65 453.09 243.94 453.15 244.2C453.15 244.2 453.15 244.2 453.15 244.2C383.8 259.9 345.26 268.62 337.56 270.37C337.56 270.37 337.56 270.37 337.56 270.37C337.03 268.03 336.74 266.73 336.68 266.47C336.68 266.47 336.68 266.47 336.68 266.47C406.03 250.77 444.57 242.05 452.27 240.31Z" id="ax22KH8XF"></path><path d="M463.89 247.84C463.89 247.84 463.89 247.84 463.89 247.84C464.42 250.18 464.71 251.48 464.77 251.74C464.77 251.74 464.77 251.74 464.77 251.74C389.96 268.67 348.4 278.07 340.08 279.95C340.08 279.95 340.08 279.95 340.08 279.95C339.55 277.62 339.26 276.32 339.2 276.06C339.2 276.06 339.2 276.06 339.2 276.06C414.01 259.13 455.58 249.72 463.89 247.84Z" id="a23UcFuyg4"></path><path d="M284.92 254.97C284.92 254.97 284.92 254.97 284.92 254.97C291.98 286.14 295.9 303.46 296.68 306.92C296.68 306.92 296.68 306.92 296.68 306.92C251.48 317.15 226.37 322.84 221.35 323.97C221.35 323.97 221.35 323.97 221.35 323.97C214.29 292.8 210.37 275.48 209.59 272.02C209.59 272.02 209.59 272.02 209.59 272.02C254.79 261.79 279.9 256.11 284.92 254.97Z" id="fAilYqYxP"></path><path d="M374.09 81.87C374.09 81.87 374.09 81.87 374.09 81.87C381.14 113.04 385.06 130.36 385.85 133.82C385.85 133.82 385.85 133.82 385.85 133.82C340.65 144.05 315.54 149.74 310.52 150.87C310.52 150.87 310.52 150.87 310.52 150.87C303.46 119.7 299.54 102.38 298.76 98.92C298.76 98.92 298.76 98.92 298.76 98.92C343.96 88.69 369.07 83.01 374.09 81.87Z" id="bcc1RdfM1"></path><path d="M94.26 400.17C94.26 400.17 94.26 400.17 94.26 400.17C94.26 408 94.26 412.35 94.26 413.22C94.26 413.22 94.26 413.22 94.26 413.22C92.88 413.22 92.11 413.22 91.96 413.22C91.96 413.22 91.96 413.22 91.96 413.22C91.96 405.39 91.96 401.04 91.96 400.17C91.96 400.17 91.96 400.17 91.96 400.17C93.34 400.17 94.11 400.17 94.26 400.17Z" id="b1i7d80xsk"></path><path d="M99.63 407.84C99.63 407.84 99.63 407.84 99.63 407.84C91.8 407.84 87.45 407.84 86.58 407.84C86.58 407.84 86.58 407.84 86.58 407.84C86.58 406.46 86.58 405.69 86.58 405.54C86.58 405.54 86.58 405.54 86.58 405.54C94.41 405.54 98.76 405.54 99.63 405.54C99.63 405.54 99.63 405.54 99.63 405.54C99.63 406.92 99.63 407.69 99.63 407.84Z" id="aWXX0RuKY"></path><path d="M345.33 8.37C345.33 8.37 345.33 8.37 345.33 8.37C345.33 16.2 345.33 20.55 345.33 21.42C345.33 21.42 345.33 21.42 345.33 21.42C343.95 21.42 343.18 21.42 343.03 21.42C343.03 21.42 343.03 21.42 343.03 21.42C343.03 13.59 343.03 9.24 343.03 8.37C343.03 8.37 343.03 8.37 343.03 8.37C344.41 8.37 345.18 8.37 345.33 8.37Z" id="aAbFbLmK9"></path><path d="M350.71 16.04C350.71 16.04 350.71 16.04 350.71 16.04C342.88 16.04 338.52 16.04 337.65 16.04C337.65 16.04 337.65 16.04 337.65 16.04C337.65 14.66 337.65 13.89 337.65 13.74C337.65 13.74 337.65 13.74 337.65 13.74C345.49 13.74 349.84 13.74 350.71 13.74C350.71 13.74 350.71 13.74 350.71 13.74C350.71 15.12 350.71 15.89 350.71 16.04Z" id="a8A5oyO0Y"></path><path d="M631.72 104.34C631.72 104.34 631.72 104.34 631.72 104.34C631.72 112.17 631.72 116.52 631.72 117.39C631.72 117.39 631.72 117.39 631.72 117.39C630.34 117.39 629.57 117.39 629.42 117.39C629.42 117.39 629.42 117.39 629.42 117.39C629.42 109.56 629.42 105.21 629.42 104.34C629.42 104.34 629.42 104.34 629.42 104.34C630.8 104.34 631.57 104.34 631.72 104.34Z" id="b2OO53WzHm"></path><path d="M637.1 112.02C637.1 112.02 637.1 112.02 637.1 112.02C629.27 112.02 624.92 112.02 624.05 112.02C624.05 112.02 624.05 112.02 624.05 112.02C624.05 110.64 624.05 109.87 624.05 109.72C624.05 109.72 624.05 109.72 624.05 109.72C631.88 109.72 636.23 109.72 637.1 109.72C637.1 109.72 637.1 109.72 637.1 109.72C637.1 111.1 637.1 111.87 637.1 112.02Z" id="b2tlqGqoo6"></path><path d="M305.56 355.86C303.01 355.86 300.95 357.92 300.95 360.47C300.95 363.01 303.01 365.08 305.56 365.08C308.1 365.08 310.17 363.01 310.17 360.47C310.17 357.92 308.1 355.86 305.56 355.86Z" id="aF9rYae9"></path><path d="M483.03 110.14C489.73 108.62 493.85 111.21 495.36 117.92C523.34 241.55 538.89 310.23 542 323.96C543.51 330.67 540.92 334.78 534.21 336.3C452.84 354.72 407.63 364.95 398.59 366.99C391.88 368.51 387.77 365.92 386.25 359.21C358.27 235.58 342.73 166.9 339.62 153.17C338.1 146.46 340.7 142.35 347.41 140.83C428.78 122.41 473.98 112.18 483.03 110.14Z" id="g4FXpeK9i4"></path><path d="M353.01 168.07C350.47 168.07 348.4 170.13 348.4 172.68C348.4 175.22 350.47 177.28 353.01 177.28C355.55 177.28 357.62 175.22 357.62 172.68C357.62 170.13 355.55 168.07 353.01 168.07Z" id="fVCaiR2n"></path><path d="M357.62 184.96C355.07 184.96 353.01 187.02 353.01 189.57C353.01 192.11 355.07 194.17 357.62 194.17C360.16 194.17 362.22 192.11 362.22 189.57C362.22 187.02 360.16 184.96 357.62 184.96Z" id="d1ySJRBoP9"></path><path d="M387.56 308.58C385.02 308.58 382.95 310.64 382.95 313.18C382.95 315.73 385.02 317.79 387.56 317.79C390.11 317.79 392.17 315.73 392.17 313.18C392.17 310.64 390.11 308.58 387.56 308.58Z" id="agAhEZaVb"></path><path d="M392.17 325.47C389.62 325.47 387.56 327.53 387.56 330.08C387.56 332.62 389.62 334.68 392.17 334.68C394.71 334.68 396.77 332.62 396.77 330.08C396.77 327.53 394.71 325.47 392.17 325.47Z" id="a1M7qTPUr8"></path><path d="M476.47 173.03C476.47 173.03 476.47 173.03 476.47 173.03C478.59 182.38 479.76 187.58 480 188.61C480 188.61 480 188.61 480 188.61C423.89 201.31 392.72 208.37 386.48 209.78C386.48 209.78 386.48 209.78 386.48 209.78C384.37 200.43 383.19 195.23 382.95 194.19C382.95 194.19 382.95 194.19 382.95 194.19C439.06 181.49 470.24 174.44 476.47 173.03Z" id="b2DZWKl2W5"></path><path d="M196.37 3.76C193.82 3.76 191.76 5.82 191.76 8.37C191.76 10.91 193.82 12.97 196.37 12.97C198.91 12.97 200.98 10.91 200.98 8.37C200.98 5.82 198.91 3.76 196.37 3.76Z" id="aaem06qr6"></path><path d="M30.53 342.75C27.99 342.75 25.93 344.82 25.93 347.36C25.93 349.91 27.99 351.97 30.53 351.97C33.08 351.97 35.14 349.91 35.14 347.36C35.14 344.82 33.08 342.75 30.53 342.75Z" id="a4lLw3jty"></path><path d="M571.72 437.52C569.17 437.52 567.11 439.59 567.11 442.13C567.11 444.68 569.17 446.74 571.72 446.74C574.26 446.74 576.32 444.68 576.32 442.13C576.32 439.59 574.26 437.52 571.72 437.52Z" id="b3D5vxWZdi"></path></defs><g><g><g><use xlink:href="#a3oTiNsxEG" opacity="1" fill="#471018" fill-opacity="1"></use><g><use xlink:href="#a3oTiNsxEG" opacity="1" fill-opacity="0" stroke="#000000" stroke-width="1" stroke-opacity="0"></use></g></g><g><use xlink:href="#a1EjPkLaWr" opacity="1" fill="#ffffff" fill-opacity="1"></use><g><use xlink:href="#a1EjPkLaWr" opacity="1" fill-opacity="0" stroke="#000000" stroke-width="1" stroke-opacity="0"></use></g></g><g><use xlink:href="#a5vH4A69TI" opacity="1" fill="#ffffff" fill-opacity="1"></use><g><use xlink:href="#a5vH4A69TI" opacity="1" fill-opacity="0" stroke="#000000" stroke-width="1" stroke-opacity="0"></use></g></g><g><use xlink:href="#e3hZvAAQ8" opacity="1" fill="#ffffff" fill-opacity="1"></use><g><use xlink:href="#e3hZvAAQ8" opacity="1" fill-opacity="0" stroke="#000000" stroke-width="1" stroke-opacity="0"></use></g></g><g><use xlink:href="#a2tkS9m3yS" opacity="1" fill="#ffffff" fill-opacity="1"></use><g><use xlink:href="#a2tkS9m3yS" opacity="1" fill-opacity="0" stroke="#000000" stroke-width="1" stroke-opacity="0"></use></g></g><g><use xlink:href="#a1W2ndJd0b" opacity="1" fill="#f5f5f5" fill-opacity="1"></use><g><use xlink:href="#a1W2ndJd0b" opacity="1" fill-opacity="0" stroke="#000000" stroke-width="1" stroke-opacity="0"></use></g></g><g><use xlink:href="#m5VruQZXuF" opacity="1" fill="#e9233f" fill-opacity="1"></use><g><use xlink:href="#m5VruQZXuF" opacity="1" fill-opacity="0" stroke="#000000" stroke-width="1" stroke-opacity="0"></use></g></g><g><use xlink:href="#c1INKBMok0" opacity="1" fill="#d5d5d5" fill-opacity="1"></use><g><use xlink:href="#c1INKBMok0" opacity="1" fill-opacity="0" stroke="#000000" stroke-width="1" stroke-opacity="0"></use></g></g><g><use xlink:href="#b2gyqKoMzY" opacity="1" fill="#f5f5f5" fill-opacity="1"></use><g><use xlink:href="#b2gyqKoMzY" opacity="1" fill-opacity="0" stroke="#000000" stroke-width="1" stroke-opacity="0"></use></g></g><g><use xlink:href="#a2GygIQNuz" opacity="1" fill="#f5f5f5" fill-opacity="1"></use><g><use xlink:href="#a2GygIQNuz" opacity="1" fill-opacity="0" stroke="#000000" stroke-width="1" stroke-opacity="0"></use></g></g><g><use xlink:href="#a1aGdjGAag" opacity="1" fill="#f5f5f5" fill-opacity="1"></use><g><use xlink:href="#a1aGdjGAag" opacity="1" fill-opacity="0" stroke="#000000" stroke-width="1" stroke-opacity="0"></use></g></g><g><use xlink:href="#akKATOdck" opacity="1" fill="#f5f5f5" fill-opacity="1"></use><g><use xlink:href="#akKATOdck" opacity="1" fill-opacity="0" stroke="#000000" stroke-width="1" stroke-opacity="0"></use></g></g><g><use xlink:href="#aTSmMDySz" opacity="1" fill="#f5f5f5" fill-opacity="1"></use><g><use xlink:href="#aTSmMDySz" opacity="1" fill-opacity="0" stroke="#000000" stroke-width="1" stroke-opacity="0"></use></g></g><g><use xlink:href="#a3qc5J8j0S" opacity="1" fill="#f5f5f5" fill-opacity="1"></use><g><use xlink:href="#a3qc5J8j0S" opacity="1" fill-opacity="0" stroke="#000000" stroke-width="1" stroke-opacity="0"></use></g></g><g><use xlink:href="#bQu9gSHRR" opacity="1" fill="#f5f5f5" fill-opacity="1"></use><g><use xlink:href="#bQu9gSHRR" opacity="1" fill-opacity="0" stroke="#000000" stroke-width="1" stroke-opacity="0"></use></g></g><g><use xlink:href="#kyPNLXCj" opacity="1" fill="#f5f5f5" fill-opacity="1"></use><g><use xlink:href="#kyPNLXCj" opacity="1" fill-opacity="0" stroke="#000000" stroke-width="1" stroke-opacity="0"></use></g></g><g><use xlink:href="#a53Owhwa12" opacity="1" fill="#f5f5f5" fill-opacity="1"></use><g><use xlink:href="#a53Owhwa12" opacity="1" fill-opacity="0" stroke="#000000" stroke-width="1" stroke-opacity="0"></use></g></g><g><use xlink:href="#bTR0nBY3k" opacity="1" fill="#f5f5f5" fill-opacity="1"></use><g><use xlink:href="#bTR0nBY3k" opacity="1" fill-opacity="0" stroke="#000000" stroke-width="1" stroke-opacity="0"></use></g></g><g><use xlink:href="#bPnptlod8" opacity="1" fill="#f5f5f5" fill-opacity="1"></use><g><use xlink:href="#bPnptlod8" opacity="1" fill-opacity="0" stroke="#000000" stroke-width="1" stroke-opacity="0"></use></g></g><g><use xlink:href="#c5hJg1YSB" opacity="1" fill="#e9233f" fill-opacity="1"></use><g><use xlink:href="#c5hJg1YSB" opacity="1" fill-opacity="0" stroke="#000000" stroke-width="1" stroke-opacity="0"></use></g></g><g><use xlink:href="#a56TGy0sP" opacity="1" fill="#e9233f" fill-opacity="1"></use><g><use xlink:href="#a56TGy0sP" opacity="1" fill-opacity="0" stroke="#000000" stroke-width="1" stroke-opacity="0"></use></g></g><g><use xlink:href="#e5T6KyInA" opacity="1" fill="#e9233f" fill-opacity="1"></use><g><use xlink:href="#e5T6KyInA" opacity="1" fill-opacity="0" stroke="#000000" stroke-width="1" stroke-opacity="0"></use></g></g><g><use xlink:href="#ax22KH8XF" opacity="1" fill="#e9233f" fill-opacity="1"></use><g><use xlink:href="#ax22KH8XF" opacity="1" fill-opacity="0" stroke="#000000" stroke-width="1" stroke-opacity="0"></use></g></g><g><use xlink:href="#a23UcFuyg4" opacity="1" fill="#e9233f" fill-opacity="1"></use><g><use xlink:href="#a23UcFuyg4" opacity="1" fill-opacity="0" stroke="#000000" stroke-width="1" stroke-opacity="0"></use></g></g><g><use xlink:href="#fAilYqYxP" opacity="1" fill="#f5f5f5" fill-opacity="1"></use><g><use xlink:href="#fAilYqYxP" opacity="1" fill-opacity="0" stroke="#000000" stroke-width="1" stroke-opacity="0"></use></g></g><g><use xlink:href="#bcc1RdfM1" opacity="1" fill="#e9233f" fill-opacity="1"></use><g><use xlink:href="#bcc1RdfM1" opacity="1" fill-opacity="0" stroke="#000000" stroke-width="1" stroke-opacity="0"></use></g></g><g><use xlink:href="#b1i7d80xsk" opacity="1" fill="#e9233f" fill-opacity="1"></use><g><use xlink:href="#b1i7d80xsk" opacity="1" fill-opacity="0" stroke="#000000" stroke-width="1" stroke-opacity="0"></use></g></g><g><use xlink:href="#aWXX0RuKY" opacity="1" fill="#e9233f" fill-opacity="1"></use><g><use xlink:href="#aWXX0RuKY" opacity="1" fill-opacity="0" stroke="#000000" stroke-width="1" stroke-opacity="0"></use></g></g><g><use xlink:href="#aAbFbLmK9" opacity="1" fill="#e9233f" fill-opacity="1"></use><g><use xlink:href="#aAbFbLmK9" opacity="1" fill-opacity="0" stroke="#000000" stroke-width="1" stroke-opacity="0"></use></g></g><g><use xlink:href="#a8A5oyO0Y" opacity="1" fill="#e9233f" fill-opacity="1"></use><g><use xlink:href="#a8A5oyO0Y" opacity="1" fill-opacity="0" stroke="#000000" stroke-width="1" stroke-opacity="0"></use></g></g><g><use xlink:href="#b2OO53WzHm" opacity="1" fill="#e9233f" fill-opacity="1"></use><g><use xlink:href="#b2OO53WzHm" opacity="1" fill-opacity="0" stroke="#000000" stroke-width="1" stroke-opacity="0"></use></g></g><g><use xlink:href="#b2tlqGqoo6" opacity="1" fill="#e9233f" fill-opacity="1"></use><g><use xlink:href="#b2tlqGqoo6" opacity="1" fill-opacity="0" stroke="#000000" stroke-width="1" stroke-opacity="0"></use></g></g><g><use xlink:href="#aF9rYae9" opacity="1" fill="#000000" fill-opacity="1"></use><g><use xlink:href="#aF9rYae9" opacity="1" fill-opacity="0" stroke="#000000" stroke-width="1" stroke-opacity="0"></use></g></g><g><use xlink:href="#g4FXpeK9i4" opacity="1" fill="#471018" fill-opacity="1"></use><g><use xlink:href="#g4FXpeK9i4" opacity="1" fill-opacity="0" stroke="#000000" stroke-width="1" stroke-opacity="0"></use></g></g><g><use xlink:href="#fVCaiR2n" opacity="1" fill="#ffffff" fill-opacity="1"></use><g><use xlink:href="#fVCaiR2n" opacity="1" fill-opacity="0" stroke="#000000" stroke-width="1" stroke-opacity="0"></use></g></g><g><use xlink:href="#d1ySJRBoP9" opacity="1" fill="#ffffff" fill-opacity="1"></use><g><use xlink:href="#d1ySJRBoP9" opacity="1" fill-opacity="0" stroke="#000000" stroke-width="1" stroke-opacity="0"></use></g></g><g><use xlink:href="#agAhEZaVb" opacity="1" fill="#ffffff" fill-opacity="1"></use><g><use xlink:href="#agAhEZaVb" opacity="1" fill-opacity="0" stroke="#000000" stroke-width="1" stroke-opacity="0"></use></g></g><g><use xlink:href="#a1M7qTPUr8" opacity="1" fill="#ffffff" fill-opacity="1"></use><g><use xlink:href="#a1M7qTPUr8" opacity="1" fill-opacity="0" stroke="#000000" stroke-width="1" stroke-opacity="0"></use></g></g><g><use xlink:href="#b2DZWKl2W5" opacity="1" fill="#f5f5f5" fill-opacity="1"></use><g><use xlink:href="#b2DZWKl2W5" opacity="1" fill-opacity="0" stroke="#000000" stroke-width="1" stroke-opacity="0"></use></g></g><g><use xlink:href="#aaem06qr6" opacity="1" fill="#000000" fill-opacity="1"></use><g><use xlink:href="#aaem06qr6" opacity="1" fill-opacity="0" stroke="#000000" stroke-width="1" stroke-opacity="0"></use></g></g><g><use xlink:href="#a4lLw3jty" opacity="1" fill="#000000" fill-opacity="1"></use><g><use xlink:href="#a4lLw3jty" opacity="1" fill-opacity="0" stroke="#000000" stroke-width="1" stroke-opacity="0"></use></g></g><g><use xlink:href="#b3D5vxWZdi" opacity="1" fill="#000000" fill-opacity="1"></use><g><use xlink:href="#b3D5vxWZdi" opacity="1" fill-opacity="0" stroke="#000000" stroke-width="1" stroke-opacity="0"></use></g></g></g></g></svg>