<?xml version="1.0" encoding="UTF-8" standalone="no"?>
<!DOCTYPE svg PUBLIC "-//W3C//DTD SVG 1.1//EN" "http://www.w3.org/Graphics/SVG/1.1/DTD/svg11.dtd">
<svg version="1.1" xmlns="http://www.w3.org/2000/svg" xmlns:xlink="http://www.w3.org/1999/xlink" preserveAspectRatio="xMidYMid meet" viewBox="0 0 750 450" width="750" height="450"><defs><path d="M371.05 48.43C277.38 48.43 201.44 124.37 201.44 218.04C201.44 311.72 277.38 387.66 371.05 387.66C464.73 387.66 540.67 311.72 540.67 218.04C540.67 124.37 464.73 48.43 371.05 48.43Z" id="c48oieWI6E"></path><path d="M371.05 46.43C465.27 46.43 541.93 123.08 541.93 217.31C541.93 311.53 465.27 388.18 371.05 388.18C276.83 388.18 200.17 311.53 200.17 217.31C200.17 123.08 276.83 46.43 371.05 46.43ZM371.05 385.66C463.88 385.66 539.41 310.14 539.41 217.31C539.41 124.48 463.88 48.95 371.05 48.95C278.22 48.95 202.7 124.48 202.7 217.31C202.7 310.14 278.22 385.66 371.05 385.66Z" id="aHnOZnQgz"></path><path d="M340.82 218.04C340.82 201.34 354.35 187.81 371.05 187.81C387.75 187.81 401.29 201.34 401.29 218.04C401.29 234.74 387.75 248.28 371.05 248.28C371.05 248.28 371.05 248.28 371.05 248.28C354.35 248.28 340.82 234.74 340.82 218.04C340.82 218.04 340.82 218.04 340.82 218.04ZM342.29 218.04C342.29 218.04 342.29 218.04 342.29 218.04C342.29 233.93 355.17 246.8 371.05 246.8C386.94 246.8 399.81 233.93 399.81 218.04C399.81 202.16 386.94 189.28 371.05 189.28C355.17 189.3 342.31 202.17 342.29 218.04Z" id="a4UT4zco4z"></path><path d="M313.53 218.04C313.53 186.28 339.28 160.52 371.05 160.52C402.82 160.52 428.57 186.28 428.57 218.04C428.57 249.81 402.82 275.57 371.05 275.57C339.28 275.57 313.53 249.81 313.53 218.04C313.53 218.04 313.53 218.04 313.53 218.04C313.53 218.04 313.53 218.04 313.53 218.04ZM315 218.04C315 249 340.1 274.09 371.05 274.09C402.01 274.09 427.1 249 427.1 218.04C427.06 187.1 401.99 162.03 371.05 162C340.1 162 315 187.09 315 218.04Z" id="g1M0IykWhX"></path><path d="M371.05 105.95C432.96 105.95 483.15 156.14 483.15 218.04C483.15 279.95 432.96 330.14 371.05 330.14C309.17 330.07 259.03 279.92 258.96 218.04C258.96 156.14 309.14 105.95 371.05 105.95ZM260.43 218.04C260.43 279.14 309.96 328.66 371.05 328.66C432.14 328.66 481.67 279.14 481.67 218.04C481.6 156.98 432.12 107.49 371.05 107.42C309.96 107.42 260.43 156.95 260.43 218.04Z" id="c77fywPax"></path><path d="M371.05 203.29C363.31 203.29 357.04 209.57 357.04 217.31C357.04 225.04 363.31 231.32 371.05 231.32C378.79 231.32 385.06 225.04 385.06 217.31C385.06 209.57 378.79 203.29 371.05 203.29Z" id="c1G3hOLnP5"></path><path d="M313.53 265.98C305.79 265.98 299.52 272.25 299.52 279.99C299.52 287.73 305.79 294 313.53 294C321.27 294 327.54 287.73 327.54 279.99C327.54 272.25 321.27 265.98 313.53 265.98Z" id="a1AAnu0Mn1"></path><path d="M475.89 237.95C468.15 237.95 461.88 244.23 461.88 251.97C461.88 259.71 468.15 265.98 475.89 265.98C483.63 265.98 489.9 259.71 489.9 251.97C489.9 244.23 483.63 237.95 475.89 237.95Z" id="bEjfaW9UA"></path><path d="M371.05 210.67C367.39 210.67 364.41 213.64 364.41 217.31C364.41 220.97 367.39 223.94 371.05 223.94C374.72 223.94 377.69 220.97 377.69 217.31C377.69 213.64 374.72 210.67 371.05 210.67Z" id="a9Uz5U6MP"></path><path d="M475.89 245.33C472.23 245.33 469.26 248.3 469.26 251.97C469.26 255.63 472.23 258.6 475.89 258.6C479.56 258.6 482.53 255.63 482.53 251.97C482.53 248.3 479.56 245.33 475.89 245.33Z" id="b3wX2sbtsE"></path><path d="M313.53 274.09C309.86 274.09 306.89 277.06 306.89 280.73C306.89 284.39 309.86 287.36 313.53 287.36C317.2 287.36 320.17 284.39 320.17 280.73C320.17 277.06 317.2 274.09 313.53 274.09Z" id="bfETEPB8B"></path><path d="M130.76 107C127.09 107 124.12 109.97 124.12 113.64C124.12 117.3 127.09 120.28 130.76 120.28C134.42 120.28 137.4 117.3 137.4 113.64C137.4 109.97 134.42 107 130.76 107Z" id="i75YXftf1m"></path><path d="M149.08 114.21L149.08 112.16L371.05 112.16L371.05 217.31L369.93 217.31L369.93 114.21L369.93 114.21L149.08 114.21Z" id="ble6btnB8"></path><path d="M130.76 94.46C141.35 94.46 149.93 103.05 149.93 113.64C149.93 124.23 141.35 132.81 130.76 132.81C120.17 132.81 111.58 124.23 111.58 113.64C111.58 113.64 111.58 113.64 111.58 113.64C111.58 103.05 120.17 94.46 130.76 94.46ZM113.06 113.64C113.06 123.41 120.98 131.34 130.76 131.34C140.53 131.34 148.46 123.41 148.46 113.64C148.46 113.64 148.46 113.64 148.46 113.64C148.45 103.87 140.53 95.95 130.76 95.94C120.98 95.94 113.06 103.86 113.06 113.64Z" id="bIHLTXMpf"></path><path d="M149.93 331.71C146.27 331.71 143.3 334.68 143.3 338.35C143.3 342.02 146.27 344.99 149.93 344.99C153.6 344.99 156.57 342.02 156.57 338.35C156.57 334.68 153.6 331.71 149.93 331.71Z" id="bwPT9D8i6"></path><path d="M130.76 338.35C130.76 327.76 139.34 319.18 149.93 319.18C160.52 319.18 169.11 327.76 169.11 338.35C169.11 348.94 160.52 357.52 149.93 357.52C149.93 357.52 149.93 357.52 149.93 357.52C139.34 357.52 130.76 348.94 130.76 338.35C130.76 338.35 130.76 338.35 130.76 338.35ZM132.23 338.35C132.23 348.12 140.16 356.05 149.93 356.05C159.71 356.05 167.63 348.12 167.63 338.35C167.63 338.35 167.63 338.35 167.63 338.35C167.62 328.58 159.7 320.66 149.93 320.65C140.16 320.65 132.23 328.58 132.23 338.35Z" id="a2UPG4Ul2T"></path><path d="M624.28 167.16C620.61 167.16 617.64 170.13 617.64 173.8C617.64 177.46 620.61 180.43 624.28 180.43C627.95 180.43 630.92 177.46 630.92 173.8C630.92 170.13 627.95 167.16 624.28 167.16Z" id="b1xQk5AXh3"></path><path d="M624.28 154.62C634.87 154.62 643.45 163.21 643.45 173.8C643.45 184.39 634.87 192.97 624.28 192.97C613.69 192.97 605.11 184.39 605.11 173.8C605.11 173.8 605.11 173.8 605.11 173.8C605.11 163.21 613.69 154.62 624.28 154.62ZM606.58 173.8C606.58 173.8 606.58 173.8 606.58 173.8C606.58 183.57 614.51 191.5 624.28 191.5C634.05 191.5 641.98 183.57 641.98 173.8C641.98 164.02 634.05 156.1 624.28 156.1C624.28 156.1 624.28 156.1 624.28 156.1C614.51 156.11 606.59 164.03 606.58 173.8Z" id="b5R7ZYeZQ"></path><path d="M605.84 173.8L605.85 175.26L476.18 178.17L476.18 251.97L475.15 251.97L475.15 176.73L475.15 176.73L605.84 173.8Z" id="fpHcyvr"></path><path d="M314.01 338.35L314.01 279.05L315.03 279.05L315.03 339.52L168.05 339.52L168.05 338.35L168.05 338.35L314.01 338.35Z" id="a1iet4dHh6"></path><path d="M171.32 148.3C171.32 148.3 171.32 148.3 171.32 148.3C171.32 151.4 171.32 153.12 171.32 153.46C171.32 153.46 171.32 153.46 171.32 153.46C122.65 153.46 95.61 153.46 90.2 153.46C90.2 153.46 90.2 153.46 90.2 153.46C90.2 150.36 90.2 148.64 90.2 148.3C90.2 148.3 90.2 148.3 90.2 148.3C138.87 148.3 165.91 148.3 171.32 148.3Z" id="n2HwE0MWrv"></path><path d="M171.32 163.05C171.32 163.05 171.32 163.05 171.32 163.05C171.32 166.15 171.32 167.87 171.32 168.21C171.32 168.21 171.32 168.21 171.32 168.21C122.65 168.21 95.61 168.21 90.2 168.21C90.2 168.21 90.2 168.21 90.2 168.21C90.2 165.11 90.2 163.39 90.2 163.05C90.2 163.05 90.2 163.05 90.2 163.05C138.87 163.05 165.91 163.05 171.32 163.05Z" id="aloN2VTYP"></path><path d="M171.32 177.8C171.32 177.8 171.32 177.8 171.32 177.8C171.32 180.89 171.32 182.62 171.32 182.96C171.32 182.96 171.32 182.96 171.32 182.96C122.65 182.96 95.61 182.96 90.2 182.96C90.2 182.96 90.2 182.96 90.2 182.96C90.2 179.86 90.2 178.14 90.2 177.8C90.2 177.8 90.2 177.8 90.2 177.8C138.87 177.8 165.91 177.8 171.32 177.8Z" id="aljJ6xXiR"></path><path d="M190.49 373.01C190.49 373.01 190.49 373.01 190.49 373.01C190.49 376.11 190.49 377.83 190.49 378.17C190.49 378.17 190.49 378.17 190.49 378.17C141.82 378.17 114.78 378.17 109.37 378.17C109.37 378.17 109.37 378.17 109.37 378.17C109.37 375.08 109.37 373.35 109.37 373.01C109.37 373.01 109.37 373.01 109.37 373.01C158.04 373.01 185.08 373.01 190.49 373.01Z" id="b5IFOo5cB"></path><path d="M190.49 387.76C190.49 387.76 190.49 387.76 190.49 387.76C190.49 390.86 190.49 392.58 190.49 392.92C190.49 392.92 190.49 392.92 190.49 392.92C141.82 392.92 114.78 392.92 109.37 392.92C109.37 392.92 109.37 392.92 109.37 392.92C109.37 389.82 109.37 388.1 109.37 387.76C109.37 387.76 109.37 387.76 109.37 387.76C158.04 387.76 185.08 387.76 190.49 387.76Z" id="b7LxgwUTVN"></path><path d="M190.49 402.51C190.49 402.51 190.49 402.51 190.49 402.51C190.49 405.61 190.49 407.33 190.49 407.67C190.49 407.67 190.49 407.67 190.49 407.67C141.82 407.67 114.78 407.67 109.37 407.67C109.37 407.67 109.37 407.67 109.37 407.67C109.37 404.57 109.37 402.85 109.37 402.51C109.37 402.51 109.37 402.51 109.37 402.51C158.04 402.51 185.08 402.51 190.49 402.51Z" id="c2h2j4P82g"></path><path d="M664.84 209.19C664.84 209.19 664.84 209.19 664.84 209.19C664.84 212.29 664.84 214.01 664.84 214.36C664.84 214.36 664.84 214.36 664.84 214.36C616.17 214.36 589.13 214.36 583.72 214.36C583.72 214.36 583.72 214.36 583.72 214.36C583.72 211.26 583.72 209.54 583.72 209.19C583.72 209.19 583.72 209.19 583.72 209.19C632.39 209.19 659.43 209.19 664.84 209.19Z" id="cE8ocnZpj"></path><path d="M664.84 223.94C664.84 223.94 664.84 223.94 664.84 223.94C664.84 227.04 664.84 228.76 664.84 229.11C664.84 229.11 664.84 229.11 664.84 229.11C616.17 229.11 589.13 229.11 583.72 229.11C583.72 229.11 583.72 229.11 583.72 229.11C583.72 226.01 583.72 224.29 583.72 223.94C583.72 223.94 583.72 223.94 583.72 223.94C632.39 223.94 659.43 223.94 664.84 223.94Z" id="a3VKfEuaKF"></path><path d="M664.84 238.69C664.84 238.69 664.84 238.69 664.84 238.69C664.84 241.79 664.84 243.51 664.84 243.85C664.84 243.85 664.84 243.85 664.84 243.85C616.17 243.85 589.13 243.85 583.72 243.85C583.72 243.85 583.72 243.85 583.72 243.85C583.72 240.76 583.72 239.04 583.72 238.69C583.72 238.69 583.72 238.69 583.72 238.69C632.39 238.69 659.43 238.69 664.84 238.69Z" id="cdySeev2s"></path></defs><g><g><g><use xlink:href="#c48oieWI6E" opacity="1" fill="#ffffff" fill-opacity="1"></use><g><use xlink:href="#c48oieWI6E" opacity="1" fill-opacity="0" stroke="#000000" stroke-width="1" stroke-opacity="0"></use></g></g><g><use xlink:href="#aHnOZnQgz" opacity="1" fill="#3f3d56" fill-opacity="1"></use><g><use xlink:href="#aHnOZnQgz" opacity="1" fill-opacity="0" stroke="#000000" stroke-width="1" stroke-opacity="0"></use></g></g><g><use xlink:href="#a4UT4zco4z" opacity="1" fill="#3f3d56" fill-opacity="1"></use><g><use xlink:href="#a4UT4zco4z" opacity="1" fill-opacity="0" stroke="#000000" stroke-width="1" stroke-opacity="0"></use></g></g><g><use xlink:href="#g1M0IykWhX" opacity="1" fill="#cccccc" fill-opacity="1"></use><g><use xlink:href="#g1M0IykWhX" opacity="1" fill-opacity="0" stroke="#000000" stroke-width="1" stroke-opacity="0"></use></g></g><g><use xlink:href="#c77fywPax" opacity="1" fill="#cccccc" fill-opacity="1"></use><g><use xlink:href="#c77fywPax" opacity="1" fill-opacity="0" stroke="#000000" stroke-width="1" stroke-opacity="0"></use></g></g><g><use xlink:href="#c1G3hOLnP5" opacity="1" fill="#e9233f" fill-opacity="1"></use><g><use xlink:href="#c1G3hOLnP5" opacity="1" fill-opacity="0" stroke="#000000" stroke-width="1" stroke-opacity="0"></use></g></g><g><use xlink:href="#a1AAnu0Mn1" opacity="1" fill="#e9233f" fill-opacity="1"></use><g><use xlink:href="#a1AAnu0Mn1" opacity="1" fill-opacity="0" stroke="#000000" stroke-width="1" stroke-opacity="0"></use></g></g><g><use xlink:href="#bEjfaW9UA" opacity="1" fill="#e9233f" fill-opacity="1"></use><g><use xlink:href="#bEjfaW9UA" opacity="1" fill-opacity="0" stroke="#000000" stroke-width="1" stroke-opacity="0"></use></g></g><g><use xlink:href="#a9Uz5U6MP" opacity="1" fill="#2f2e41" fill-opacity="1"></use><g><use xlink:href="#a9Uz5U6MP" opacity="1" fill-opacity="0" stroke="#000000" stroke-width="1" stroke-opacity="0"></use></g></g><g><use xlink:href="#b3wX2sbtsE" opacity="1" fill="#2f2e41" fill-opacity="1"></use><g><use xlink:href="#b3wX2sbtsE" opacity="1" fill-opacity="0" stroke="#000000" stroke-width="1" stroke-opacity="0"></use></g></g><g><use xlink:href="#bfETEPB8B" opacity="1" fill="#2f2e41" fill-opacity="1"></use><g><use xlink:href="#bfETEPB8B" opacity="1" fill-opacity="0" stroke="#000000" stroke-width="1" stroke-opacity="0"></use></g></g><g><use xlink:href="#i75YXftf1m" opacity="1" fill="#e9233f" fill-opacity="1"></use><g><use xlink:href="#i75YXftf1m" opacity="1" fill-opacity="0" stroke="#000000" stroke-width="1" stroke-opacity="0"></use></g></g><g><use xlink:href="#ble6btnB8" opacity="1" fill="#2f2e41" fill-opacity="1"></use><g><use xlink:href="#ble6btnB8" opacity="1" fill-opacity="0" stroke="#000000" stroke-width="1" stroke-opacity="0"></use></g></g><g><use xlink:href="#bIHLTXMpf" opacity="1" fill="#2f2e41" fill-opacity="1"></use><g><use xlink:href="#bIHLTXMpf" opacity="1" fill-opacity="0" stroke="#000000" stroke-width="1" stroke-opacity="0"></use></g></g><g><use xlink:href="#bwPT9D8i6" opacity="1" fill="#e9233f" fill-opacity="1"></use><g><use xlink:href="#bwPT9D8i6" opacity="1" fill-opacity="0" stroke="#000000" stroke-width="1" stroke-opacity="0"></use></g></g><g><use xlink:href="#a2UPG4Ul2T" opacity="1" fill="#2f2e41" fill-opacity="1"></use><g><use xlink:href="#a2UPG4Ul2T" opacity="1" fill-opacity="0" stroke="#000000" stroke-width="1" stroke-opacity="0"></use></g></g><g><use xlink:href="#b1xQk5AXh3" opacity="1" fill="#e9233f" fill-opacity="1"></use><g><use xlink:href="#b1xQk5AXh3" opacity="1" fill-opacity="0" stroke="#000000" stroke-width="1" stroke-opacity="0"></use></g></g><g><use xlink:href="#b5R7ZYeZQ" opacity="1" fill="#2f2e41" fill-opacity="1"></use><g><use xlink:href="#b5R7ZYeZQ" opacity="1" fill-opacity="0" stroke="#000000" stroke-width="1" stroke-opacity="0"></use></g></g><g><use xlink:href="#fpHcyvr" opacity="1" fill="#2f2e41" fill-opacity="1"></use><g><use xlink:href="#fpHcyvr" opacity="1" fill-opacity="0" stroke="#000000" stroke-width="1" stroke-opacity="0"></use></g></g><g><use xlink:href="#a1iet4dHh6" opacity="1" fill="#2f2e41" fill-opacity="1"></use><g><use xlink:href="#a1iet4dHh6" opacity="1" fill-opacity="0" stroke="#000000" stroke-width="1" stroke-opacity="0"></use></g></g><g><use xlink:href="#n2HwE0MWrv" opacity="1" fill="#bd172d" fill-opacity="1"></use><g><use xlink:href="#n2HwE0MWrv" opacity="1" fill-opacity="0" stroke="#000000" stroke-width="1" stroke-opacity="0"></use></g></g><g><use xlink:href="#aloN2VTYP" opacity="1" fill="#bd172d" fill-opacity="1"></use><g><use xlink:href="#aloN2VTYP" opacity="1" fill-opacity="0" stroke="#000000" stroke-width="1" stroke-opacity="0"></use></g></g><g><use xlink:href="#aljJ6xXiR" opacity="1" fill="#bd172d" fill-opacity="1"></use><g><use xlink:href="#aljJ6xXiR" opacity="1" fill-opacity="0" stroke="#000000" stroke-width="1" stroke-opacity="0"></use></g></g><g><use xlink:href="#b5IFOo5cB" opacity="1" fill="#bd172d" fill-opacity="1"></use><g><use xlink:href="#b5IFOo5cB" opacity="1" fill-opacity="0" stroke="#000000" stroke-width="1" stroke-opacity="0"></use></g></g><g><use xlink:href="#b7LxgwUTVN" opacity="1" fill="#bd172d" fill-opacity="1"></use><g><use xlink:href="#b7LxgwUTVN" opacity="1" fill-opacity="0" stroke="#000000" stroke-width="1" stroke-opacity="0"></use></g></g><g><use xlink:href="#c2h2j4P82g" opacity="1" fill="#bd172d" fill-opacity="1"></use><g><use xlink:href="#c2h2j4P82g" opacity="1" fill-opacity="0" stroke="#000000" stroke-width="1" stroke-opacity="0"></use></g></g><g><use xlink:href="#cE8ocnZpj" opacity="1" fill="#bd172d" fill-opacity="1"></use><g><use xlink:href="#cE8ocnZpj" opacity="1" fill-opacity="0" stroke="#000000" stroke-width="1" stroke-opacity="0"></use></g></g><g><use xlink:href="#a3VKfEuaKF" opacity="1" fill="#bd172d" fill-opacity="1"></use><g><use xlink:href="#a3VKfEuaKF" opacity="1" fill-opacity="0" stroke="#000000" stroke-width="1" stroke-opacity="0"></use></g></g><g><use xlink:href="#cdySeev2s" opacity="1" fill="#bd172d" fill-opacity="1"></use><g><use xlink:href="#cdySeev2s" opacity="1" fill-opacity="0" stroke="#000000" stroke-width="1" stroke-opacity="0"></use></g></g></g></g></svg>