<?xml version="1.0" encoding="UTF-8" standalone="no"?>
<!DOCTYPE svg PUBLIC "-//W3C//DTD SVG 1.1//EN" "http://www.w3.org/Graphics/SVG/1.1/DTD/svg11.dtd">
<svg version="1.1" xmlns="http://www.w3.org/2000/svg" xmlns:xlink="http://www.w3.org/1999/xlink" preserveAspectRatio="xMidYMid meet" viewBox="0 0 1100 620" width="1100" height="620"><defs><path d="M269.5 86.25C269.21 85.2 268.49 84.31 267.52 83.81C266.88 83.65 266.2 83.64 265.56 83.79C264.55 83.95 256.49 85.18 255.48 85.33C254.64 85.37 253.83 85.69 253.18 86.23C251.87 87.61 253.16 89.83 253.12 91.73C253.07 93.88 251.17 95.61 249.11 96.19C247 96.61 244.83 96.59 242.74 96.11C241.33 95.89 230.06 94.14 228.65 93.92C232.8 92.6 236.49 90.13 239.31 86.81C241.16 84.61 242.15 80.51 239.47 79.47C238.67 79.25 237.84 79.18 237.02 79.27C230.64 79.32 225.61 73.99 219.64 71.75C211.79 68.99 203.06 71.59 198.01 78.2C198.76 78.23 204.76 78.52 205.51 78.56C206.22 78.52 206.92 78.71 207.51 79.09C209.16 80.44 207.11 83.04 207.34 85.16C207.64 87.9 211.3 88.49 214.05 88.77C216.8 89.05 220.29 91.28 218.97 93.71C205.14 98.48 191.06 84.4 176.53 86.13C172.86 86.57 169.39 88.02 165.8 88.92C143.87 94.47 121.2 79.67 98.81 82.8C93.83 83.65 88.93 84.94 84.18 86.66C81.13 87.66 77.95 88.74 75.74 91.06C73.52 93.39 72.68 97.36 74.78 99.78C68.99 100.26 63.17 99.71 57.58 98.15C60.66 99.86 62.56 103.12 62.53 106.64C53.5 108.11 44.71 110.79 36.4 114.61C37.95 117.19 39.76 119.61 41.81 121.82C40.66 122.55 31.52 128.43 30.37 129.16C34.24 130.13 36.23 135.4 33.99 138.69C37.99 136.91 40.47 132.3 44.76 131.37C47.56 130.75 50.42 131.9 53.08 132.98C55.74 134.06 58.67 135.1 61.42 134.29C64.18 133.48 66.21 129.91 64.46 127.64C76.24 124.2 88.41 122.3 100.67 121.98C101.62 121.86 102.58 122.04 103.41 122.5C105.01 123.61 104.59 126 104.5 127.94C104.42 129.88 105.93 132.43 107.67 131.56C105.62 133.33 107.37 136.66 109.33 138.52C111.29 140.38 113.65 142.95 112.45 145.37C112.13 146 111.6 146.51 111.3 147.15C110.41 149.03 111.82 151.22 113.49 152.47C115.15 153.72 117.19 154.59 118.35 156.33C119.5 158.06 118.98 161.09 116.91 161.33C116.32 160.58 111.62 154.61 111.04 153.87C109.03 155.95 107.65 158.56 107.07 161.39C113.3 166.48 114.23 176.85 109.02 182.98C106.35 186.11 102.56 188.01 99.25 190.46C95.94 192.9 92.88 196.38 92.89 200.49C92.91 207.59 92.32 214.2 94.99 220.78C99.9 232.93 105.57 244.75 111.96 256.19C113.64 259.19 115.81 262.48 119.21 263C112.76 247.3 108.76 234.31 107.6 231.12C109.84 231.13 112.43 231.31 113.74 233.12C114.83 234.63 114.6 236.67 114.94 238.49C115.37 240.26 116.08 241.95 117.06 243.48C119.11 247.14 135.53 276.39 137.59 280.05C139.29 283.08 141.24 286.33 144.49 287.56C146.57 288.34 148.98 288.2 150.89 289.33C152.39 290.21 153.4 291.78 154.93 292.62C159.25 294.98 165.27 290.45 169.31 293.27C170.46 294.07 171.2 295.35 172.26 296.27C175.99 299.51 182.12 297.34 186.42 299.76C189.2 301.31 190.64 304.42 192.12 307.23C195.83 314.29 201.83 321.2 209.78 321.76C212.28 321.94 214.83 321.46 217.27 322.02C219.71 322.57 222.12 324.7 221.73 327.18C221.05 331.42 223.15 336.06 222.59 340.31C221.56 348.06 210.57 351.47 209.62 359.23C209.42 360.93 209.74 362.68 209.34 364.35C208.84 366.39 207.31 368.05 206.76 370.07C205.73 373.91 208.48 377.73 211.51 380.32C214.53 382.9 218.13 385.13 219.79 388.74C221.53 392.57 220.68 397.02 221.24 401.19C222.48 410.28 230.33 417.02 238.41 421.36C240.88 422.69 243.52 423.97 245.11 426.26C247.19 429.26 246.99 433.21 247.68 436.79C249.38 445.57 256.77 452.79 256.98 461.73C257.12 468.08 253.59 473.84 251.49 479.83C247.49 491.44 248.75 504.22 254.93 514.83C256.51 517.5 258.4 520.01 259.51 522.89C261.5 528.05 260.86 533.9 262.69 539.11C265.12 546 271.79 551.69 271.15 558.96C274.18 565.25 280.86 568.34 287.59 570.21C288.79 570.54 298.43 573.23 299.63 573.56C301.94 574.2 304.35 574.85 306.7 574.39C309.05 573.92 311.29 571.97 311.23 569.58C305.32 568.24 299.22 566.83 294.35 563.23C289.48 559.63 286.15 553.21 288 547.45C288.85 544.77 290.68 541.68 288.94 539.47C287.95 538.21 286.14 537.88 285.02 536.72C283.27 534.92 283.87 531.9 285.12 529.73C286.38 527.56 288.19 525.62 288.7 523.16C289.22 520.34 287.94 517.5 285.49 516.03C287.72 515.19 289.75 513.88 291.45 512.2C293.02 510.41 293.74 507.65 292.51 505.61C296.17 506.08 300.5 506.31 302.9 503.5C304.82 501.27 304.69 497.92 303.93 495.07C303.17 492.22 301.89 489.45 301.85 486.51C310.3 486.91 318.77 486.62 327.18 485.65C325.96 481.55 323.2 478.1 319.48 476C323.28 475.36 326.75 470.8 327.95 467.14C329.16 463.47 328.85 459.47 328.11 455.68C327.82 454.71 327.78 453.68 327.99 452.68C328.42 451.32 329.76 450.48 331 449.77C332.89 448.68 348.01 440 349.9 438.92C351.02 438.35 352.05 437.6 352.92 436.69C354.9 434.36 354.6 430.85 353.59 427.97C352.58 425.09 350.95 422.38 350.56 419.36C349.4 410.3 359.09 403.8 362.36 395.27C363.65 391.93 363.91 388.29 364.16 384.72C364.43 380.88 364.45 376.42 361.5 373.94C358.67 371.57 354.25 372.1 351.3 369.89C348.59 367.87 347.65 363.94 344.69 362.31C342 360.82 338.63 361.77 335.63 361.07C330.37 359.84 327.05 353.77 321.67 353.21C318.64 352.89 315.2 354.37 312.71 352.6C310.52 351.05 310.43 347.92 310.01 345.26C308.52 336.8 301.91 330.18 293.46 328.65C290.33 328.15 286.92 328.34 284.26 326.62C281.56 324.88 280.33 321.62 278.21 319.21C274.8 315.32 269.42 313.94 264.39 312.75C262.34 312.27 245.95 308.42 243.9 307.94C240.27 307.08 235.58 306.63 233.63 309.81C233.05 311.03 232.64 312.31 232.41 313.64C230.91 318.55 226.42 321.93 221.28 322.02C219.57 319.09 216.78 316.94 213.52 316.01C211.44 315.43 209.22 315.37 207.24 314.51C202.86 312.38 201.04 307.1 203.18 302.72C203.25 302.57 203.33 302.42 203.41 302.28C205.84 297.95 205.07 292.54 201.53 289.07C198.05 285.94 193.01 285.18 188.34 285.5C187.12 282.83 189.16 279.82 191.37 277.88C193.57 275.94 196.25 274.03 196.73 271.13C197.48 266.58 191.67 263.12 187.25 264.47C182.84 265.83 180.02 270.12 178.16 274.35C177.09 276.77 176.18 279.32 174.5 281.37C172.81 283.41 170.1 284.88 167.53 284.22C163.9 283.29 162.49 278.97 161.69 275.31C160.61 270.39 159.52 265.41 159.75 260.38C159.98 255.35 161.67 250.19 165.38 246.79C171.42 241.24 180.69 241.78 188.84 242.67C186.92 240.5 187.39 236.84 189.45 234.8C191.66 232.83 194.7 232.09 197.57 232.8C200.02 233.31 202.24 234.64 203.85 236.56C206.17 239.39 206.83 243.2 208.58 246.41C210.33 249.61 214.27 252.35 217.49 250.63C220.28 249.14 220.72 245.28 220.02 242.2C219.33 239.12 217.86 236.13 218.11 232.98C218.59 226.98 224.81 223.37 230.3 220.9C235.79 218.42 242.08 215.1 242.95 209.14C242.98 207.97 243.2 206.82 243.6 205.72C244.21 204.76 245.06 203.96 246.06 203.41C262.09 192.82 278.38 182.1 296.7 176.31C297.65 176.01 297.76 176.35 298.73 176.11C300.09 175.32 299.19 173.15 297.89 172.28C296.59 171.4 294.84 170.73 294.51 169.19C294.27 168.07 294.94 166.96 295.11 165.82C295.53 163.01 292.18 160.43 289.57 161.55C288.1 159.6 291.01 157.33 293.37 156.69C300.44 154.74 307.69 153.55 315.01 153.15C315.86 153.01 316.72 153.16 317.48 153.57C318.71 154.42 318.55 156.37 317.68 157.59C316.81 158.8 315.45 159.57 314.36 160.6C311.95 162.95 311.04 166.46 312.02 169.69C315.84 171.64 320 173.64 324.23 172.95C328.46 172.27 332.22 167.51 330.23 163.71C328.38 160.18 322.81 159.38 321.85 155.5C320.73 150.96 327.16 146.93 325.71 142.48C325.08 140.53 323.14 139.39 321.65 137.98C318.05 134.45 316.99 129.08 318.98 124.45C314.05 125.31 309.02 123.74 305.47 120.22C302.24 116.96 299.66 111.81 295.07 111.96C290.86 112.09 287.24 117.01 283.3 115.51C282.33 115.14 281.31 114.39 280.37 114.83C279.75 115.23 279.35 115.9 279.28 116.64C278.28 121.42 280 126.87 277.39 131.01C274.56 135.5 267.99 136.13 264.56 140.18C262.69 142.39 261.97 145.35 260.25 147.67C258.53 149.99 254.89 151.47 252.83 149.45C254.92 145.16 253.76 140.01 250.05 137.02C248.14 135.77 246.08 134.77 243.92 134.03C241.5 133.01 239.21 131.73 237.07 130.21C236 129.57 235.12 128.63 234.55 127.52C234.1 126.13 234.16 124.62 234.72 123.26C236.85 117.16 242.18 112.74 248.58 111.78C251.32 111.41 254.51 111.54 256.32 109.45C257.28 108.35 257.79 106.68 259.18 106.23C260.07 106.05 261 106.16 261.82 106.55C262.84 106.91 271.03 109.79 272.05 110.15C273.19 110.67 274.45 110.88 275.7 110.76C276.98 110.58 277.91 109.45 277.83 108.16C277.51 106.46 274.89 105.64 275.13 103.93C275.26 103.37 275.56 102.87 275.99 102.49C283.47 94.53 294.11 90.33 305.01 91.03C306.3 93.15 304.25 95.66 302.56 97.48C300.86 99.29 299.49 102.52 301.54 103.92C302.39 104.35 303.32 104.56 304.27 104.53C306.79 104.87 309.24 105.61 311.52 106.73C316.83 109.04 320.89 111.28 321.93 111.78C321.63 109.54 321.34 107.18 322.19 105.08C323.04 102.98 325.46 101.34 327.57 102.16C329.6 102.94 330.64 105.64 332.81 105.88C335.7 106.21 336.84 101.94 335.63 99.3C334.42 96.65 332.03 94.43 331.83 91.53C331.7 89.58 332.44 87.15 330.88 85.96C330.33 85.61 329.69 85.39 329.04 85.32C325.13 84.6 293.9 78.85 290 78.13C287.68 77.71 284.33 78.03 284.23 80.39C284.17 81.7 285.34 83 284.82 84.21C284.27 85.5 282.44 85.38 281.12 85.84C279.06 86.55 278.02 88.99 278.22 91.16C278.58 93.32 279.42 95.37 280.66 97.16C278.13 96.1 274.28 95.91 271.74 94.85C271.37 91.9 270.61 89.01 269.5 86.25Z" id="co1YOfrXs"></path><path d="M240.59 61.71C235.55 60.04 230 61.7 226.7 65.86C226.06 66.71 225.52 67.88 226.06 68.79C226.83 70.11 228.8 69.59 230.25 69.12C232.38 68.36 234.7 68.3 236.86 68.96C238.22 69.43 239.44 70.25 240.8 70.7C242.16 71.27 243.72 71.04 244.86 70.11C245.79 69.16 245.85 67.67 245.85 66.33C245.99 65.42 245.7 64.5 245.08 63.83C244.53 63.51 243.92 63.33 243.29 63.3C241.87 63.03 240.59 62.29 239.67 61.18" id="cbazzQGxC"></path><path d="M254.67 57.79C252.89 57.69 251.38 59.05 251.28 60.82C251.25 61.34 251.35 61.85 251.56 62.32C253.25 62.78 255.02 62.89 256.76 62.65C258.53 62.38 259.96 61.07 260.39 59.32C258.34 59.7 256.23 59.29 254.47 58.19" id="b5kSmYNrN"></path><path d="M288.57 55.77C292.68 57.35 295.28 61.43 294.97 65.82C294.79 66.65 294.81 67.5 295.03 68.31C295.52 69.5 296.93 69.94 298.18 70.25C300.42 70.93 302.76 71.23 305.1 71.13C307.48 71.01 309.63 69.69 310.83 67.63C311.17 66.67 311.56 65.73 312.02 64.82C315.01 60.26 323.89 65.77 327.1 61.37C328.23 59.82 328.12 57.49 329.6 56.26C330.36 55.72 331.24 55.39 332.17 55.28C338.62 53.99 345.14 53.07 351.69 52.5C354.8 52.23 358.85 51.11 358.87 47.99C347.18 45.7 335.05 47.33 324.37 52.63C320.52 54.56 315.44 58.61 311.73 56.06C310.35 55.1 310.41 52.53 308.51 51.45C306.55 50.35 303.97 50.8 301.9 51.24C297.29 52.22 292.82 53.74 288.57 55.77Z" id="a4x4s1flSJ"></path><path d="M345.65 59.45C341.72 59.28 338.4 62.32 338.22 66.24C338.21 66.55 338.21 66.86 338.24 67.16C343.38 68.88 348.99 67.21 354.41 67.44C359.82 67.66 366.13 71.53 365.2 76.88C364.92 78.49 363.99 80.11 364.47 81.67C364.81 82.77 365.78 83.55 366.33 84.56C367.47 86.66 366.56 89.33 365.12 91.24C363.68 93.16 361.75 94.69 360.49 96.72C357.35 101.78 359.13 108.32 361 113.98C361.54 116.11 362.54 118.11 363.93 119.82C366.7 122.77 371.21 123.02 375.25 123.08C378.19 123.12 381.56 122.98 383.43 120.7C385.85 117.72 384.16 113.08 385.76 109.59C387.21 106.41 390.91 105.05 394.26 104.09C400.4 102.32 406.66 100.82 412.47 98.15C419.68 94.83 426.42 89.66 434.34 89.23C436.57 89.11 438.85 89.38 440.99 88.77C443.13 88.16 445.16 86.31 445 84.09C444.86 82.19 443.26 80.79 442 79.36C440.75 77.93 439.76 75.73 440.92 74.22C442.99 73.83 459.61 70.73 461.69 70.34C460.22 66.33 459.07 61.04 462.45 58.43C463.68 57.49 465.31 57.11 466.35 55.97C468.12 54.03 467.23 50.68 465.18 49.03C463.14 47.38 460.37 47 457.76 46.78C448.65 46.02 439.49 46.52 430.36 47.02C403.6 48.49 382.19 49.66 376.84 49.96C373.25 50.16 369.1 49.85 365.81 51.08C363.02 52.12 361.04 54.02 357.85 54.69C351.96 55.92 345.48 55.09 340.15 58.39C341.25 58.61 345.1 59.34 345.65 59.45Z" id="b5EPb5cXSm"></path><path d="M436.93 102.16C436.62 102.5 436.44 102.94 436.41 103.39C436.06 105.42 436.48 107.5 437.59 109.22C438.75 110.94 440.75 111.9 442.81 111.72C445.29 111.41 447.11 109.3 449.38 108.27C452.89 106.68 467.76 104.21 457.47 98.65C453.92 96.74 451.63 98.43 448.84 99.69C445.66 101.32 442.09 102.05 438.53 101.8C437.97 101.71 437.4 101.84 436.93 102.16Z" id="d2qYLV7HA"></path><path d="M525.82 57.74C525.19 58.93 525.61 60.39 526.76 61.08C527.21 61.24 527.68 61.31 528.16 61.3C528.65 61.31 532.56 61.43 533.05 61.44C535.12 61.51 537.72 61.95 538.28 63.95C538.69 65.43 537.76 67.34 538.88 68.4C539.36 68.78 539.94 69 540.54 69.05C542.15 69.47 543.83 69.52 545.47 69.21C549.02 68.26 547.15 66.09 548.27 64.16C549.99 61.2 549.69 62.99 552.71 61.29C554.94 60.04 557.82 57.77 555.96 54.58C552.72 49.04 533.45 52.87 528.68 55.26C527.48 55.75 526.47 56.62 525.82 57.74Z" id="a3vDrC3sOT"></path><path d="M622.29 52.85C615.89 53.7 609.46 54.56 603.29 56.48C605.96 57.54 608.76 58.22 611.61 58.52C613.18 58.6 614.74 58.82 616.27 59.19C619 60 621.74 62.09 624.37 61.02C626 60.35 626.53 58.66 627.88 57.76C628.81 57.13 632.35 56.13 632.75 55.5C635.94 50.43 627.59 52.14 625.13 52.47C624.56 52.54 622.57 52.81 622.29 52.85Z" id="b3R5r16MKB"></path><path d="M627.12 73.03C625.78 74.29 624.42 75.84 624.54 77.67C624.7 80.1 627.29 81.5 629.53 82.45C630.43 82.84 637.69 85.91 638.6 86.29C639.7 84.74 638.69 82.6 637.55 81.08C636.42 79.55 635.07 77.79 635.57 75.95C636.14 73.86 638.69 73.15 640.83 72.79C644.32 72.2 653.73 72.25 652.6 66.63C651.26 60.01 641.09 63.41 637.59 65.36C633.8 67.48 630.28 70.06 627.12 73.03Z" id="euu7xnjx8"></path><path d="M636.31 447.7C637.99 450.15 641.34 451.06 644.25 450.44C647.14 449.67 649.71 448.01 651.61 445.7C653.35 443.77 654.78 441.58 655.85 439.21C657.34 435.51 658.4 431.66 658.99 427.72C659.27 426.24 661.52 414.41 661.8 412.93C662.43 409.63 662.41 399.49 656.33 402.79C654.67 403.7 650.83 410.82 649.09 412.84C645.96 416.48 645.54 420.01 643.89 424.42C641.83 429.94 637.67 434.54 635.76 440.07C634.9 442.57 634.82 445.52 636.31 447.7Z" id="b1IQjcm4O3"></path><path d="M956.59 515.74C954.6 514.97 952.67 514.05 950.81 513C948.95 518.11 947.96 523.5 947.89 528.94C949.25 528.17 960.13 522.02 961.49 521.25C963.53 520.09 965.85 518.48 965.81 516.13C965.85 515.54 965.56 514.97 965.06 514.66C964.76 514.54 964.43 514.5 964.1 514.55C962.09 514.71 960.25 515.71 958.35 516.4C956.44 517.09 954.22 517.45 952.47 516.43" id="d5EtpFrn7P"></path><path d="M1023.97 521.88C1020.85 523.47 1018.73 526.48 1015.92 528.57C1013.23 530.57 1009.99 531.67 1006.82 532.74C1005.88 533.57 1006.31 535.23 1007.33 535.96C1008.42 536.58 1009.67 536.86 1010.92 536.76C1014.22 536.84 1017.7 536.87 1020.59 535.28C1022.21 534.22 1023.74 533.01 1025.14 531.66C1028.52 528.84 1032.57 526.98 1036.59 525.19C1038.05 524.63 1039.41 523.83 1040.58 522.8C1043.11 520.31 1043.29 516.47 1039.65 515.63C1036.71 514.94 1031.13 519.41 1028.33 520.31C1026.84 520.72 1025.38 521.24 1023.97 521.88Z" id="d1fQEr3vXn"></path><path d="M1060.03 499.61C1060.36 496.14 1059.08 492.71 1056.56 490.31C1056.52 493.73 1056.42 497.38 1054.49 500.21C1053.12 502.23 1050.97 503.59 1049.47 505.51C1047.97 507.43 1047.3 510.48 1049.06 512.17C1050.19 513.02 1051.56 513.5 1052.98 513.51C1056.49 513.93 1060.55 514.16 1063.01 511.62C1064.35 510.24 1065.01 508.19 1066.65 507.17C1067.26 506.91 1067.8 506.52 1068.24 506.03C1068.92 504.95 1067.84 503.54 1066.63 503.15C1065.42 502.76 1064.09 502.94 1062.87 502.58C1061.66 502.21 1060.54 500.84 1061.17 499.73" id="c5lmKGySU"></path><path d="M998.06 374.41C994.94 373.83 992.51 371.48 989.98 369.55C983.99 364.98 976.7 362.43 969.16 362.27C962.31 362.14 955.39 364 948.65 362.7C949.09 365.15 951.19 366.98 953.42 368.08C955.65 369.17 958.12 369.71 960.36 370.78C963.96 372.51 966.81 375.48 968.39 379.14C969.12 380.82 969.57 382.66 970.67 384.13C972.91 387.15 977.15 387.81 980.89 387.56C985.77 387.24 990.87 385.84 995.41 387.65C998.89 389.05 1001.37 392.09 1004.27 394.45C1007.17 396.81 1011.26 398.57 1014.59 396.86C1007.49 394.56 1002.71 387.92 1002.79 380.45C1006.06 380.75 1015.47 380.64 1014.96 375.09C1014.53 370.38 1006.5 373.57 1003.69 374.07C1001.85 374.52 999.94 374.63 998.06 374.41Z" id="a4ETYEdZo4"></path><path d="M963.72 403.28C963.04 401.15 960.57 400.1 958.33 400.05C956.1 399.99 953.9 400.66 951.66 400.72C950.21 400.65 948.75 400.67 947.3 400.78C942.86 401.51 940.13 406.16 935.94 407.82C933.4 408.82 930.54 408.63 927.9 409.33C921.9 410.91 918.1 416.58 913.9 421.15C907.12 428.51 898.29 433.66 888.55 435.94C885.13 436.73 881.46 437.23 878.75 439.45C875.16 442.39 874.27 447.42 873.47 451.99C871.27 464.61 867.89 477 863.39 489C864.82 489.18 876.22 490.64 877.65 490.82C880.36 491.17 883.17 491.5 885.78 490.7C887.67 489.99 889.47 489.03 891.12 487.85C897.47 483.91 904.58 481.35 911.98 480.32C915.71 479.81 919.63 479.72 923.13 481.11C926.63 482.49 929.64 485.64 929.93 489.4C933.02 488.44 936.38 489.25 938.68 491.52C940.92 493.8 942.38 496.72 942.86 499.87C943.24 501.82 943.61 504.15 945.42 504.97C946.9 505.64 948.59 504.92 950.21 504.79C955.69 504.35 960.24 510.74 965.62 509.64C971.4 508.46 972.82 499.81 978.45 498.08C981.69 497.08 986.23 498.29 987.78 495.28C989.15 492.63 986.42 489.56 986.7 486.59C987.05 482.93 991.37 481.38 994.69 479.82C1006.16 474.44 1011.61 459 1006.05 447.61C1002.76 440.86 996.27 435.55 995.08 428.14C994.16 422.44 996.41 415.79 992.77 411.3C990.92 409.02 987.79 407.76 986.69 405.03C986 403.32 986.27 401.37 985.9 399.56C985.53 397.75 983.95 395.85 982.16 396.32C976.97 397.69 975.31 413.73 972.53 417.63C968.3 423.55 959.63 419.65 960.96 412.35C961.54 409.17 964.71 406.36 963.72 403.28Z" id="imxMXnc3J"></path><path d="M859.56 379.86C857.86 380.57 856.86 383.07 858.23 384.31C868.9 383.89 879.65 383.48 890.23 384.93C902.43 386.6 914.5 390.74 926.75 389.52C919.75 387.45 912.64 385.8 905.45 384.57C904.25 384.35 894.65 382.51 893.45 382.28C890.24 381.61 886.99 381.11 883.72 380.78C876.87 380.21 871.7 382.02 864.97 380.14C863.19 379.64 861.26 379.15 859.56 379.86Z" id="f3bV7Cyh1y"></path><path d="M873.22 343.58C872.78 344.3 873.28 345.27 873.04 346.08C872.72 347.2 871.26 347.48 870.11 347.33C868.96 347.18 867.71 346.82 866.69 347.37C865.63 348.1 865.18 349.44 865.57 350.66C865.99 351.84 866.67 352.92 867.55 353.81C869.06 355.71 870.77 357.43 872.67 358.94C876.34 361.65 881.31 362.96 883.62 366.89C883.95 367.65 884.45 368.33 885.09 368.86C886.19 369.56 887.64 369.03 888.84 368.48C889.25 368.29 892.6 366.76 893.02 366.57C893.78 366.29 894.45 365.84 894.98 365.24C895.94 363.94 895.35 362.09 894.55 360.69C893.74 359.3 892.72 357.85 892.89 356.24C893.2 353.39 896.87 352.29 898.38 349.85C899.91 347.38 898.91 344.21 899.09 341.31C899.3 337.93 901.42 333.53 898 331C895.09 328.85 892.32 330.84 890.23 333.21C885.83 338.21 883.75 343.63 875.66 342.95C874.77 342.88 873.67 342.81 873.22 343.58Z" id="a4ckenHdf8"></path><path d="M907.04 299.44C908.73 302.33 908.54 306.06 910.37 308.86C912.25 311.74 916.04 313.26 917.09 316.53C918.25 320.1 915.63 324.44 917.72 327.55C919.26 329.59 922.17 329.98 924.2 328.43C924.3 328.35 924.4 328.27 924.5 328.18C926.33 326.19 926.24 323.11 924.3 321.23C923.06 320.11 921.29 319.62 920.26 318.31C919.73 317.55 919.37 316.68 919.22 315.76C918.66 313.12 918.75 310.38 919.48 307.78C919.76 307.12 919.83 306.4 919.68 305.7C919.22 304.35 917.39 304.25 916.11 303.63C913.21 302.21 913.28 298.11 913.78 294.91C913.45 297.04 905.87 293.42 905.07 292.21C903.5 289.82 904.36 285.2 904.04 282.56C900.64 284.2 899.33 289.06 901.07 292.41C902.5 295.14 905.48 296.78 907.04 299.44Z" id="a3M7G7tRJ"></path><path d="M819.34 332.26C817.91 332.98 817.52 334.96 818.08 336.46C818.76 337.92 819.81 339.17 821.13 340.1C825.04 343.32 829.25 346.23 832.66 349.98C838.76 356.68 841.99 365.73 848.63 371.91C849.96 373.34 851.73 374.3 853.65 374.63C855.59 374.81 857.76 373.57 857.98 371.64C858.16 370.05 857.06 368.63 855.97 367.45C853.4 364.65 850.57 362.07 848.14 359.14C847.02 358.01 846.31 356.54 846.14 354.96C846.13 353.38 847.56 351.73 849.09 352.12C847.23 351.65 845.86 348.55 843.13 347.97C840.85 347.48 840.3 348.89 837.58 347.73C832.41 345.51 828.35 338.58 824.72 334.52C823.32 332.95 821.22 331.32 819.34 332.26Z" id="aa1MRQaFJ"></path><path d="M941.95 180.48C938.11 179.33 933.02 182.15 933.53 186.13C933.87 188.78 936.33 190.56 937.69 192.85C939.71 196.25 939.17 200.57 938.11 204.37C937.85 205.55 937.36 206.67 936.66 207.65C935.68 208.69 934.51 209.53 933.21 210.13C928.03 213.04 923.45 216.93 919.74 221.58C919.34 222.01 919.06 222.54 918.93 223.11C918.74 224.45 920.09 225.43 920.86 226.55C922.55 229.04 921.33 232.39 921.49 235.4C921.44 236.26 921.84 237.09 922.55 237.59C923.57 238.11 924.78 237.23 925.34 236.23C927.17 232.89 925.79 227.55 929.24 225.94C929.89 225.64 930.68 225.51 931.12 224.94C931.81 224.03 931.14 222.68 931.49 221.59C932.02 219.96 934.25 219.89 935.96 219.96C938.91 220.09 941.86 219.69 944.68 218.8C945.78 218.54 946.78 217.96 947.56 217.13C948.59 215.84 948.5 214.01 948.29 212.38C947.26 204.22 944.68 196.34 940.68 189.16C943.71 189.54 947.01 189.88 949.62 188.3C951.09 187.41 952.84 184.77 952.12 182.97C950.97 180.12 948.89 182.52 946.32 182.04C944.83 181.6 943.38 181.08 941.95 180.48Z" id="a63RI6k8Es"></path><path d="M557.99 232.77C557.35 234.64 555.35 236.2 553.45 235.63C551.98 235.18 551.13 233.71 550.09 232.58C544.29 226.32 531.2 229.94 527.62 222.19C526.15 219.03 527.15 215.24 526.15 211.91C524.86 207.94 521.04 205.35 516.87 205.6C515.03 205.87 513.23 206.41 511.54 207.2C500.21 211.74 488.31 214.71 476.18 216.04C473.87 216.18 471.59 216.6 469.38 217.28C464.4 219.08 461 223.7 458.57 228.42C456.15 233.13 454.36 238.23 451.11 242.42C447.7 246.82 442.92 249.9 438.45 253.24C436.74 254.34 435.3 255.84 434.28 257.61C433.31 259.6 433.37 261.91 433.44 264.12C433.53 266.8 434.26 288.25 434.35 290.93C434.47 294.38 434.62 297.95 436.16 301.04C438.09 304.89 441.9 307.42 444.54 310.82C447.23 314.32 448.64 318.64 448.51 323.06C448.46 324.83 448.28 326.93 449.66 328.05C450.5 328.59 451.49 328.88 452.49 328.86C456.12 329.16 485.13 331.53 488.76 331.83C495.14 332.35 502.21 333.21 506.38 338.07C508.34 340.36 509.92 343.66 512.93 343.91C514.23 344.02 515.48 343.49 516.77 343.38C520.03 343.13 522.9 345.6 524.7 348.32C527.44 352.48 528.68 357.44 528.23 362.39C527.93 365.5 526.97 368.52 526.76 371.63C525.97 383.49 536.02 393.79 536.21 405.67C536.33 412.65 533.01 419.18 529.77 425.38C534.99 433.29 530.72 443.81 532.8 453.06C534.77 461.83 542.08 468.69 543.9 477.5C544.74 481.53 544.79 486.48 548.34 488.56C549.9 489.32 551.63 489.67 553.36 489.56C563.8 489.69 574.13 487.34 583.49 482.7C587.88 480.52 592.44 477.27 593.2 472.42C593.82 468.52 591.84 464.15 593.86 460.75C596.23 456.73 602.32 457.05 605.82 453.97C611.49 448.97 607.07 439.43 609.37 432.22C611.43 425.74 618.54 422.3 622.07 416.49C623.46 413.99 624.45 411.29 625.02 408.49C626.63 401.79 627.64 394.96 628.02 388.09C628.12 383.91 628.42 379.74 628.95 375.59C632.75 351.98 656.09 336.17 663.67 313.48C664.39 311.32 664.73 308.43 662.8 307.21C661.66 306.66 660.36 306.53 659.13 306.82C657.46 307.03 644.09 308.72 642.41 308.93C640.34 309.19 638.14 309.44 636.23 308.57C634.32 307.71 632.95 305.3 633.97 303.47C636.81 298.32 630.96 291.82 628.37 286.55C621.38 272.36 613.06 258.86 603.51 246.24C602.9 245.59 602.52 244.76 602.42 243.87C602.9 243.89 606.69 244.02 607.17 244.03C605.57 238.28 602.92 231.99 597.34 229.89C594.19 228.71 590.71 229.12 587.35 229.3C577.73 229.82 567.42 228.37 557.91 226.9C558.27 228.85 558.62 230.89 557.99 232.77Z" id="a13oYpdS6E"></path><path d="M596.33 103.34C602.77 104.16 607.39 97.51 610.33 91.74C610.56 94.8 613.18 97.13 616.25 96.98C617.84 96.72 619.35 96.12 620.7 95.24C633.44 88.28 647.71 84.59 662.23 84.51C661.94 82.23 663.42 80.1 665.66 79.58C668.61 78.99 671.27 81.54 672.69 84.19C674.12 86.85 675 89.92 677.27 91.9C679.53 93.89 683.91 93.8 684.8 90.93C685.66 88.17 682.79 85.82 680.4 84.19C678.01 82.56 675.49 79.55 677.1 77.15C689.3 74.45 701.58 71.74 714.06 71.2C716.19 71.28 718.3 70.91 720.28 70.13C722.19 69.2 723.7 67.08 723.19 65.02C717.61 66.33 711.8 64.14 708.49 59.47C725.81 58.04 744.23 56.83 759.58 64.98C761.42 68.93 752.03 72.22 754.55 75.79C755.35 76.93 756.95 77.06 758.34 77.08C769.01 77.28 779.74 77.48 790.29 75.87C794.14 75.28 798.04 74.45 801.9 74.92C808.35 75.72 813.86 80.02 820.2 81.42C822.79 81.99 825.68 82.01 827.85 80.51C830.03 79.01 830.97 75.59 829.18 73.64C835.15 67.79 845.06 69.24 852.94 72.04C860.82 74.84 868.28 79.36 876.61 79.98C882.59 80.43 888.65 78.82 894.56 79.85C898.27 80.49 901.73 82.14 905.35 83.15C912.22 85.07 919.47 84.67 926.6 84.76C944.78 85.01 962.76 88.58 979.65 95.3C981.84 96.02 983.86 97.21 985.54 98.79C987.11 100.47 987.92 103.08 986.86 105.13C985.11 104.87 971.15 102.83 969.41 102.58C971.05 105.82 975.3 106.37 978.76 107.48C982.21 108.6 985.8 112.42 983.72 115.4C979.98 114.2 976.58 117.95 974.69 121.39C972.8 124.83 970.5 128.96 966.58 129.17C963.06 129.35 958.81 126.36 956.52 129.03C959.69 133.03 962.4 137.36 964.6 141.95C966.86 146.66 968.47 152.6 965.42 156.84C964.94 157.6 964.21 158.16 963.35 158.44C960.86 159.07 959.23 156.02 957.44 154.16C955.19 151.83 951.77 151.17 948.72 150.08C945.66 148.98 942.44 146.83 942.2 143.59C942.05 141.58 943.12 139.71 943.9 137.84C945.22 134.71 945.79 131.31 945.58 127.91C945.41 125.18 944.65 122.34 942.68 120.43C940.72 118.52 937.33 117.91 935.23 119.66C934.24 120.48 933.46 121.78 932.18 121.83C929.93 121.92 928.19 117.99 926.38 119.33C926.59 120.76 926.3 122.22 925.54 123.45C920.13 128.16 911.81 126.17 904.83 127.83C901.51 128.78 898.33 130.17 895.38 131.96C894.27 132.43 893.33 133.22 892.68 134.23C891.81 135.92 892.77 138.09 894.3 139.21C895.93 140.21 897.76 140.84 899.66 141.04C908.17 142.65 916.81 145.15 923.52 150.62C930.24 156.08 934.65 165.12 932.52 173.51C930.84 171.91 917.42 159.08 915.74 157.48C916.7 167.58 916.72 175.71 916.83 177.73C916.93 179.05 916.75 180.38 916.29 181.63C915.1 184.27 911.85 185.16 909.01 185.74C905.92 186.33 903.89 189.32 904.47 192.41C904.52 192.63 904.57 192.84 904.64 193.05C905.64 196.34 908.16 198.91 910.47 201.46C912.77 204.02 915.04 206.92 915.34 210.35C915.64 213.78 913.06 217.65 909.62 217.41C907.02 217.23 905.09 214.9 903.98 212.54C902.87 210.17 902.21 207.54 900.54 205.54C895.49 199.47 884.15 202.07 879.62 195.59C877.28 198.25 876.48 201.94 877.51 205.33C879.61 204.01 882.49 205.23 884.08 207.15C885.66 209.06 886.4 211.52 887.64 213.67C889.32 216.57 891.99 219.14 892.22 222.48C892.16 223.75 892.18 225.01 892.28 226.27C892.7 228.3 894.41 229.75 895.6 231.44C898.36 235.38 898.22 240.79 896.44 245.26C894.66 249.73 891.47 253.46 888.3 257.08C882.77 263.41 877.12 269.69 870.56 274.94C868.69 276.44 866.7 277.92 865.53 280.01C864.37 282.1 864.31 285.04 866.1 286.64C864.82 286.7 862.52 287.33 861.24 287.4C860.79 282.26 860.69 277.09 860.94 271.94C855.89 269.51 850.44 276.01 851.09 281.58C851.75 287.15 855.78 291.63 858.64 296.45C860.74 299.97 862.3 304.08 861.6 308.12C860.9 312.17 857.29 315.89 853.21 315.54C846.71 314.97 843.99 305.64 837.55 304.57C836.98 304.44 836.39 304.5 835.86 304.74C834.9 305.26 834.73 306.54 834.68 307.63C834.42 312.97 834.19 318.53 836.28 323.46C839.33 330.66 847.21 336.72 845.56 344.37C836.65 340.22 832.02 330.23 829.91 320.64C827.81 311.04 827.46 300.97 823.69 291.9C820.83 295.57 814.81 292.54 812.2 288.69C809.72 285.04 808.19 280.82 805.79 277.12C803.38 273.42 799.7 270.11 795.29 269.91C790.67 269.69 786.66 272.86 783.14 275.86C780.24 278.32 777.26 280.88 775.57 284.29C773.11 289.24 773.75 295.09 773.63 300.62C773.5 306.6 772.24 312.91 768.16 317.29C764.08 321.67 756.56 323.2 752.06 319.25C749.71 317.19 748.58 314.11 747.56 311.16C742.68 296.91 738.62 282.4 735.39 267.69C734.63 271.05 731.68 275.38 728.87 273.4C728.24 272.87 727.73 272.21 727.37 271.46C722.11 262.56 712.39 257.22 702.56 254.02C692.73 250.82 682.39 249.33 672.67 245.81C667.23 243.83 662.02 241.24 657.17 238.08C654.65 241.79 654.36 246.58 656.42 250.56C658.58 254.37 663.46 256.58 667.63 255.25C669.79 254.56 671.62 253.06 673.76 252.32C675.9 251.58 678.77 251.94 679.71 254.01C680.6 255.98 679.25 258.37 679.92 260.43C680.95 263.57 685.68 263.81 687.34 266.67C688.57 268.8 687.56 271.62 685.8 273.34C684.04 275.05 681.69 275.99 679.54 277.19C672.57 281.06 667.62 287.68 661.53 292.82C655.44 297.97 646.85 301.73 639.59 298.43C641.32 289.67 630.88 283.23 628.96 274.51C628.33 271.64 628.66 268.59 627.76 265.8C626.45 261.75 622.86 258.96 619.91 255.89C612.69 248.29 608.84 238.09 609.25 227.62C609.41 224.01 610.07 220.35 609.25 216.84C608.43 213.32 605.52 209.92 601.92 210.08C593.68 210.44 583.31 211.06 578.99 204.04C577.45 201.54 576.78 197.87 579.01 195.95C580.58 194.59 582.9 194.72 584.97 194.93C586.82 195.11 601.66 196.57 603.52 196.75C607.85 197.18 612.54 197.53 616.27 195.26C619.99 192.99 621.6 186.97 618.15 184.31C615.64 182.36 611.12 182.46 610.39 179.36C609.78 176.78 612.64 173.85 611.1 171.69C609.99 170.15 607.5 170.58 605.99 171.74C604.49 172.9 603.39 174.59 601.71 175.47C598.75 177.01 595.21 175.54 592.03 174.55C588.84 173.55 584.57 173.47 583.03 176.42C581.3 179.73 584.56 184.07 582.85 187.38C580.58 191.76 572.9 189.27 569.72 193.04C566.07 197.36 572.21 203.81 570.98 209.34C567.78 210.92 563.98 210.71 560.98 208.77C558.02 206.76 556.41 203.29 556.78 199.73C557.09 197.25 558.38 194.71 557.52 192.36C556.81 190.46 554.91 189.33 553.13 188.35C551.33 187.36 536.91 179.39 535.11 178.39C533.44 181.5 535.55 185.35 538.2 187.68C540.84 190.01 544.16 191.77 545.9 194.83C548.18 199.25 546.63 204.67 542.36 207.22C541.84 207.58 541.19 207.69 540.58 207.53C539.99 207.19 539.58 206.63 539.42 205.97C536.24 197.83 531.46 189.81 523.83 185.56C516.19 181.31 505.23 182.18 500.22 189.34C499.03 191.04 498.23 192.98 497.2 194.78C491.69 204.33 479.9 208.86 468.88 208.56C467.8 208.62 466.72 208.37 465.79 207.84C464 206.61 464.09 204 464.36 201.85C464.47 200.94 465.4 193.65 465.51 192.74C465.75 190.9 466.08 188.88 467.53 187.74C469.57 186.13 472.52 187.15 475.12 187.11C479.16 186.92 482.64 184.23 483.85 180.37C484.92 176.5 483.76 172.35 480.83 169.59C479.64 168.48 478.04 167.07 478.67 165.56C479.18 164.72 480.03 164.14 481.01 163.98C485.68 162.63 490.61 162.27 495.21 160.67C499.8 159.07 504.25 155.8 505.34 151.06C505.68 149.6 505.83 147.84 507.13 147.12C507.79 146.85 508.49 146.7 509.2 146.7C514.36 145.97 518.11 141.41 517.84 136.21C520.04 134.67 523.12 135.8 525.25 137.44C527.38 139.07 529.26 141.23 531.85 141.94C536.68 143.25 541.35 138.98 546.35 138.96C548.45 138.95 550.63 139.69 552.61 138.98C554.62 138.26 555.82 136.26 557.36 134.78C558.9 133.31 561.6 132.41 563.02 134C562.9 133.1 561.93 125.92 561.81 125.03C566.75 126.27 571.98 125.33 576.17 122.43C574.6 121.9 562.08 117.67 560.51 117.14C559.97 117 559.47 116.74 559.05 116.36C557.91 115.13 559.04 113.22 559.97 111.83C562.18 108.5 562.55 103.01 558.91 101.35C556.43 100.22 553.57 101.57 551.19 102.9C550.05 103.54 540.91 108.64 539.76 109.28C539.4 111.45 542.06 112.68 543.7 114.14C546.43 116.56 546.67 120.74 544.25 123.46C543.02 124.85 541.25 125.66 539.4 125.68C540.92 127.66 541.46 130.23 540.87 132.66C540.1 132.71 533.95 133.15 533.18 133.21C532.31 133.38 531.42 133.21 530.68 132.72C529.86 131.99 529.97 130.71 529.78 129.63C529.32 127.02 526.76 125.18 524.15 124.71C521.54 124.24 518.87 124.85 516.28 125.44C515.18 125.84 513.98 125.81 512.9 125.36C512.28 124.96 511.81 124.37 511.56 123.67C510.42 120.92 511.48 117.69 513.31 115.34C515.13 112.99 517.62 111.27 519.86 109.31C525.21 104.61 529.15 98.51 531.22 91.69C535.45 89.92 539.83 87.51 544.06 85.74C550.59 82.43 557.9 81.02 565.19 81.64C566.62 81.67 578.09 81.89 579.52 81.92C583.77 82 588.12 82.1 592.05 83.72C595.97 85.34 599.42 88.84 599.69 93.07C599.86 94.05 599.51 95.04 598.77 95.7C598.22 96 597.59 96.14 596.96 96.11C593 96.25 591.31 97.23 587.36 97.37C589.87 100.04 592.69 102.88 596.33 103.34Z" id="b6GkdcZn5"></path><path d="M473.12 142.29C474.26 141.21 474.7 139.58 474.27 138.07C471.49 137 468.34 137.59 466.14 139.6C465.29 140.46 464.56 141.43 463.97 142.48C462.08 145.55 460.42 149.22 461.51 152.66C461.69 153.41 462.17 154.07 462.83 154.47C463.32 154.66 463.85 154.75 464.37 154.71C466.45 154.71 468.52 154.58 470.58 154.33C471.85 154.17 473.31 153.81 473.8 152.64C474.45 151.09 472.89 149.34 473.34 147.73C473.64 147.01 474.09 146.36 474.67 145.83C475.25 145.29 475.54 144.51 475.45 143.73C475.27 142.97 474.11 142.54 473.69 143.2" id="d6DbIBwt7"></path><path d="M478.26 127.99C477.84 127.97 477.43 128.07 477.06 128.26C476.7 128.52 476.44 128.9 476.32 129.33C475.49 131.97 476.84 134.81 479.41 135.84C480.09 135.99 480.73 136.25 481.33 136.61C482.92 137.84 481.91 140.37 482.21 142.36C482.55 144.59 484.71 146.47 484.31 148.7C484 150.45 482.13 151.84 482.43 153.59C482.75 155.43 485.08 155.98 486.94 156.13C488.02 156.32 489.13 156.19 490.13 155.77C491.14 155.08 491.86 154.04 492.15 152.85C492.91 150.58 493.23 148.19 493.09 145.8C493.08 144.72 492.81 143.65 492.3 142.69C491.74 141.94 491.11 141.22 490.44 140.57C486.88 136.42 490.63 130.24 483.88 128.34C482.04 127.92 480.14 127.8 478.26 127.99Z" id="l25Mlii2SG"></path><path d="M952.42 453.01C952.42 453.01 679.52 296.36 562.04 326.04C562.04 326.04 313.05 352.84 284.19 411.79C284.19 411.79 205.05 164.45 176.19 156.21" id="b3Y8lZdvkf"></path><path d="M284.19 411.79C329.95 289.77 742.18 154.56 742.18 154.56C683.64 169.4 562.04 326.04 562.04 326.04C562.04 326.04 304.8 138.89 176.19 156.21C176.19 156.21 742.59 174.76 952.42 453.01" id="k19oIVqxvM"></path><path d="M176.19 144.25C169.59 144.25 164.23 149.6 164.23 156.21C164.23 162.81 169.59 168.16 176.19 168.16C182.79 168.16 188.14 162.81 188.14 156.21C188.14 149.6 182.79 144.25 176.19 144.25Z" id="eQxD7Suxf"></path><path d="M284.19 399.83C277.59 399.83 272.24 405.19 272.24 411.79C272.24 418.39 277.59 423.74 284.19 423.74C290.8 423.74 296.15 418.39 296.15 411.79C296.15 405.19 290.8 399.83 284.19 399.83Z" id="i3uYfuYmN"></path><path d="M742.18 143.6C735.58 143.6 730.23 148.95 730.23 155.56C730.23 162.16 735.58 167.51 742.18 167.51C748.78 167.51 754.13 162.16 754.13 155.56C754.13 148.95 748.78 143.6 742.18 143.6Z" id="a3MoM6tCWM"></path><path d="M952.42 441.06C945.81 441.06 940.46 446.41 940.46 453.01C940.46 459.61 945.81 464.97 952.42 464.97C959.02 464.97 964.37 459.61 964.37 453.01C964.37 446.41 959.02 441.06 952.42 441.06Z" id="a4VTJvpxY"></path><path d="M562.04 314.09C555.43 314.09 550.08 319.44 550.08 326.04C550.08 332.65 555.43 338 562.04 338C568.64 338 573.99 332.65 573.99 326.04C573.99 319.44 568.64 314.09 562.04 314.09Z" id="czhNfYKS8"></path></defs><g><g><g><use xlink:href="#co1YOfrXs" opacity="1" fill="#000000" fill-opacity="1"></use><g><use xlink:href="#co1YOfrXs" opacity="1" fill-opacity="0" stroke="#000000" stroke-width="1" stroke-opacity="0"></use></g></g><g><use xlink:href="#cbazzQGxC" opacity="1" fill="#000000" fill-opacity="1"></use><g><use xlink:href="#cbazzQGxC" opacity="1" fill-opacity="0" stroke="#000000" stroke-width="1" stroke-opacity="0"></use></g></g><g><use xlink:href="#b5kSmYNrN" opacity="1" fill="#000000" fill-opacity="1"></use><g><use xlink:href="#b5kSmYNrN" opacity="1" fill-opacity="0" stroke="#000000" stroke-width="1" stroke-opacity="0"></use></g></g><g><use xlink:href="#a4x4s1flSJ" opacity="1" fill="#000000" fill-opacity="1"></use><g><use xlink:href="#a4x4s1flSJ" opacity="1" fill-opacity="0" stroke="#000000" stroke-width="1" stroke-opacity="0"></use></g></g><g><use xlink:href="#b5EPb5cXSm" opacity="1" fill="#000000" fill-opacity="1"></use><g><use xlink:href="#b5EPb5cXSm" opacity="1" fill-opacity="0" stroke="#000000" stroke-width="1" stroke-opacity="0"></use></g></g><g><use xlink:href="#d2qYLV7HA" opacity="1" fill="#000000" fill-opacity="1"></use><g><use xlink:href="#d2qYLV7HA" opacity="1" fill-opacity="0" stroke="#000000" stroke-width="1" stroke-opacity="0"></use></g></g><g><use xlink:href="#a3vDrC3sOT" opacity="1" fill="#000000" fill-opacity="1"></use><g><use xlink:href="#a3vDrC3sOT" opacity="1" fill-opacity="0" stroke="#000000" stroke-width="1" stroke-opacity="0"></use></g></g><g><use xlink:href="#b3R5r16MKB" opacity="1" fill="#000000" fill-opacity="1"></use><g><use xlink:href="#b3R5r16MKB" opacity="1" fill-opacity="0" stroke="#000000" stroke-width="1" stroke-opacity="0"></use></g></g><g><use xlink:href="#euu7xnjx8" opacity="1" fill="#000000" fill-opacity="1"></use><g><use xlink:href="#euu7xnjx8" opacity="1" fill-opacity="0" stroke="#000000" stroke-width="1" stroke-opacity="0"></use></g></g><g><use xlink:href="#b1IQjcm4O3" opacity="1" fill="#000000" fill-opacity="1"></use><g><use xlink:href="#b1IQjcm4O3" opacity="1" fill-opacity="0" stroke="#000000" stroke-width="1" stroke-opacity="0"></use></g></g><g><use xlink:href="#d5EtpFrn7P" opacity="1" fill="#000000" fill-opacity="1"></use><g><use xlink:href="#d5EtpFrn7P" opacity="1" fill-opacity="0" stroke="#000000" stroke-width="1" stroke-opacity="0"></use></g></g><g><use xlink:href="#d1fQEr3vXn" opacity="1" fill="#000000" fill-opacity="1"></use><g><use xlink:href="#d1fQEr3vXn" opacity="1" fill-opacity="0" stroke="#000000" stroke-width="1" stroke-opacity="0"></use></g></g><g><use xlink:href="#c5lmKGySU" opacity="1" fill="#000000" fill-opacity="1"></use><g><use xlink:href="#c5lmKGySU" opacity="1" fill-opacity="0" stroke="#000000" stroke-width="1" stroke-opacity="0"></use></g></g><g><use xlink:href="#a4ETYEdZo4" opacity="1" fill="#000000" fill-opacity="1"></use><g><use xlink:href="#a4ETYEdZo4" opacity="1" fill-opacity="0" stroke="#000000" stroke-width="1" stroke-opacity="0"></use></g></g><g><use xlink:href="#imxMXnc3J" opacity="1" fill="#000000" fill-opacity="1"></use><g><use xlink:href="#imxMXnc3J" opacity="1" fill-opacity="0" stroke="#000000" stroke-width="1" stroke-opacity="0"></use></g></g><g><use xlink:href="#f3bV7Cyh1y" opacity="1" fill="#000000" fill-opacity="1"></use><g><use xlink:href="#f3bV7Cyh1y" opacity="1" fill-opacity="0" stroke="#000000" stroke-width="1" stroke-opacity="0"></use></g></g><g><use xlink:href="#a4ckenHdf8" opacity="1" fill="#000000" fill-opacity="1"></use><g><use xlink:href="#a4ckenHdf8" opacity="1" fill-opacity="0" stroke="#000000" stroke-width="1" stroke-opacity="0"></use></g></g><g><use xlink:href="#a3M7G7tRJ" opacity="1" fill="#000000" fill-opacity="1"></use><g><use xlink:href="#a3M7G7tRJ" opacity="1" fill-opacity="0" stroke="#000000" stroke-width="1" stroke-opacity="0"></use></g></g><g><use xlink:href="#aa1MRQaFJ" opacity="1" fill="#000000" fill-opacity="1"></use><g><use xlink:href="#aa1MRQaFJ" opacity="1" fill-opacity="0" stroke="#000000" stroke-width="1" stroke-opacity="0"></use></g></g><g><use xlink:href="#a63RI6k8Es" opacity="1" fill="#000000" fill-opacity="1"></use><g><use xlink:href="#a63RI6k8Es" opacity="1" fill-opacity="0" stroke="#000000" stroke-width="1" stroke-opacity="0"></use></g></g><g><use xlink:href="#a13oYpdS6E" opacity="1" fill="#000000" fill-opacity="1"></use><g><use xlink:href="#a13oYpdS6E" opacity="1" fill-opacity="0" stroke="#000000" stroke-width="1" stroke-opacity="0"></use></g></g><g><use xlink:href="#b6GkdcZn5" opacity="1" fill="#000000" fill-opacity="1"></use><g><use xlink:href="#b6GkdcZn5" opacity="1" fill-opacity="0" stroke="#000000" stroke-width="1" stroke-opacity="0"></use></g></g><g><use xlink:href="#d6DbIBwt7" opacity="1" fill="#000000" fill-opacity="1"></use><g><use xlink:href="#d6DbIBwt7" opacity="1" fill-opacity="0" stroke="#000000" stroke-width="1" stroke-opacity="0"></use></g></g><g><use xlink:href="#l25Mlii2SG" opacity="1" fill="#000000" fill-opacity="1"></use><g><use xlink:href="#l25Mlii2SG" opacity="1" fill-opacity="0" stroke="#000000" stroke-width="1" stroke-opacity="0"></use></g></g><g><use xlink:href="#b3Y8lZdvkf" opacity="1" fill="#000000" fill-opacity="0"></use><g><use xlink:href="#b3Y8lZdvkf" opacity="1" fill-opacity="0" stroke="#bd172d" stroke-width="2" stroke-opacity="1"></use></g></g><g><use xlink:href="#k19oIVqxvM" opacity="1" fill="#000000" fill-opacity="0"></use><g><use xlink:href="#k19oIVqxvM" opacity="1" fill-opacity="0" stroke="#bd172d" stroke-width="2" stroke-opacity="1"></use></g></g><g><use xlink:href="#eQxD7Suxf" opacity="1" fill="#e9233f" fill-opacity="1"></use><g><use xlink:href="#eQxD7Suxf" opacity="1" fill-opacity="0" stroke="#000000" stroke-width="1" stroke-opacity="0"></use></g></g><g><use xlink:href="#i3uYfuYmN" opacity="1" fill="#e9233f" fill-opacity="1"></use><g><use xlink:href="#i3uYfuYmN" opacity="1" fill-opacity="0" stroke="#000000" stroke-width="1" stroke-opacity="0"></use></g></g><g><use xlink:href="#a3MoM6tCWM" opacity="1" fill="#e9233f" fill-opacity="1"></use><g><use xlink:href="#a3MoM6tCWM" opacity="1" fill-opacity="0" stroke="#000000" stroke-width="1" stroke-opacity="0"></use></g></g><g><use xlink:href="#a4VTJvpxY" opacity="1" fill="#e9233f" fill-opacity="1"></use><g><use xlink:href="#a4VTJvpxY" opacity="1" fill-opacity="0" stroke="#000000" stroke-width="1" stroke-opacity="0"></use></g></g><g><use xlink:href="#czhNfYKS8" opacity="1" fill="#e9233f" fill-opacity="1"></use><g><use xlink:href="#czhNfYKS8" opacity="1" fill-opacity="0" stroke="#000000" stroke-width="1" stroke-opacity="0"></use></g></g></g></g></svg>